**ABCDEFGHIJKLMNOPQRSTUVWXYZabcdefghijklmnopqrstuvwxyz**************************
**PARASOLID !"#$%&'()*+,-./:;<=>?@[\]^_`{|}~0123456789**************************
**PART1;
MC=unknown;
MC_MODEL=unknown;
MC_ID=unknown;
OS=unknown;
OS_RELEASE=unknown;
FRU=Parasolid 37.1.212;
APPL=Onshape;
SITE=unknown;
USER=unknown;
FORMAT=text;
GUISE=transmit;
KEY=BTGapi::writeModels_.xmt;
FILE=BTGapi::writeModels_.xmt;
DATE=2026-04-21T02:45:25 (UTC);
**PART2;
SCH=SCH_3701212_37102;
USFLD_SIZE=0;
**PART3;
**END_OF_HEADER*****************************************************************
T51 : TRANSMIT FILE created by modeller version 370121223 SCH_3701212_37102_1300
6239 0 12 36 CCCI7 lattice222 0 CCCI4 mesh1006 0 I8 polyline1008 0 CCCCCCCDI5 ow
ner1040 0 CCCI16 boundary_lattice222 0 CCCI13 boundary_mesh1006 0 I17 boundary_p
olyline1008 0 CCCA16 index_map_offset0 0 1 dA9 index_map82 0 A17 node_id_index_m
ap82 0 A20 schema_embedding_map82 0 A5 child12 0 A14 lowest_node_id0 0 1 dA16 me
sh_offset_data206 0 Z1 323 2 3 0 0 0 0 0 0 0 1e3 1e-8 0 4 5 1 0 1 2 6 0 7 8 9 0
 0 10 11 12 0 0 0 0 0 0 0 81 255 1 2 313 13 1 14 0 0 0 15 70 11 CI9 list_type0 0
 1 uI10 notransmit0 0 1 lCCCDCCDI12 finger_index0 0 1 dI12 finger_block1012 0 CZ
3 0 4 T1 0 0 5 20 1 16 16 13 255 6 241 0 1 0 17 0 0 18 0 51 255 7 234 0 19 20 0
 0 --.1 -.12 .0105 0 0 -1 .005 -1 0 0 30 255 8 240 0 11 21 0 0 +-.12 -.25 .0105
 0 0 -1 29 255 9 195 0 22 23 0 -.14 -.15 -.0105 19 9 CCCCCCI5 frame230 0 CA5 own
er12 0 Z10 80 0 1 18 0 24 0 V0 16 255 11 206 25 ?27 0 30 8 0 0 1 18 255 12 74 29
 26 0 28 34 ?1 81 1 29 275 35 12 0 0 32 33 31 17 255 26 0 38 40 36 12 39 37 0 41
 +18 28 69 45 36 12 43 42 ?1 29 34 76 0 12 42 44 -.14 -.15 .0105 29 42 71 0 28 4
6 34 -.175 -.15 .0105 29 44 200 0 50 34 48 -.12 -.25 -.0105 18 50 182 33 47 49 0
 44 ?1 29 48 199 0 49 44 51 -.075 -.25 -.0105 18 49 178 55 52 53 50 48 ?1 29 51
 198 0 53 48 54 -.075 -.1 -.0105 18 53 174 57 60 59 49 51 ?1 29 54 197 0 59 51 2
3 -.175 -.1 -.0105 18 59 170 56 58 61 53 54 ?1 29 23 196 0 61 54 9 -.175 -.15 -.
0105 18 61 166 62 64 22 59 23 ?1 81 1 62 272 35 61 0 0 63 45 65 17 64 0 67 70 58
 61 69 66 0 68 +18 22 162 32 75 71 61 9 ?1 81 1 32 274 35 22 0 0 45 29 73 17 75
 0 72 41 68 22 74 76 0 80 +18 71 49 77 78 79 22 81 ?1 81 1 77 277 35 71 0 0 33 8
5 83 17 78 0 82 27 84 71 89 90 0 40 -18 79 54 63 89 87 71 88 ?1 29 81 51 0 71 0
 88 -.12 -.25 .0105 29 88 56 0 79 81 86 -.075 -.25 .0105 29 86 61 0 87 88 46 -.0
75 -.1 .0105 18 87 59 93 95 43 79 86 ?1 29 46 66 0 43 86 42 -.175 -.1 .0105 18 4
3 64 91 94 28 87 46 ?1 81 1 91 267 35 43 0 0 56 57 92 17 94 0 96 100 98 43 58 97
 0 99 -15 255 96 211 0 98 101 0 17 100 0 96 60 94 87 105 103 0 0 +17 98 0 96 94
 60 59 102 104 0 0 -17 58 0 67 64 99 59 94 97 0 69 +16 97 203 85 ?58 106 110 107
 0 0 1 17 99 0 67 58 70 43 36 108 0 105 -15 67 209 0 64 109 0 17 70 0 67 99 64 2
8 68 110 0 39 -17 36 0 38 26 105 28 99 108 0 70 +16 108 39 112 ?36 37 103 115 0
 0 1 17 105 0 38 36 114 43 100 103 0 0 -15 38 8 0 40 111 0 17 114 0 38 105 89 87
 113 116 0 100 -16 103 34 117 ?100 108 116 119 0 0 1 81 1 117 285 35 103 0 0 118
 120 122 16 116 29 125 ?113 103 90 124 0 0 1 30 119 36 0 103 124 115 0 +-.125 -.
1 .0105 1 0 0 30 124 31 0 116 121 119 0 +-.075 -.175 .0105 0 -1 0 30 115 41 0 10
8 119 123 0 +-.175 -.125 .0105 0 -1 0 30 123 46 0 37 115 130 0 +-.1575 -.15 .010
5 1 0 0 16 37 44 126 ?26 128 108 123 0 0 1 31 255 130 194 0 127 123 129 0 +-.1 -
.12 -.0105 0 0 1 1 0 0 .005 16 127 158 131 ?135 132 0 130 0 0 1 31 129 193 0 132
 130 133 0 +-.15 -.12 -.0105 0 0 1 1 0 0 .005 16 132 154 134 ?136 140 127 129 0
 0 1 30 133 192 0 140 129 138 0 +-.13 -.2 -.0105 .196116135138184 -.980580675690
92 0 16 140 150 137 ?139 144 132 133 0 0 1 30 138 191 0 144 133 145 0 +-.0975 -.
25 -.0105 1 0 0 16 144 146 120 ?142 143 140 138 0 0 1 30 145 190 0 143 138 141 0
 +-.075 -.175 -.0105 0 -1 0 16 143 142 148 ?150 104 144 145 0 0 1 30 141 189 0 1
04 145 146 0 +-.125 -.1 -.0105 1 0 0 16 104 138 118 ?102 66 143 141 0 0 1 30 146
 188 0 66 141 149 0 +-.175 -.125 -.0105 0 -1 0 16 66 134 147 ?64 76 104 146 0 0
 1 30 149 187 0 76 146 151 0 +-.1575 -.15 -.0105 1 0 0 16 76 130 155 ?75 153 66
 149 0 0 1 30 151 235 0 128 149 152 0 +-.14 -.15 .0105 0 0 -1 16 128 201 154 ?80
 110 37 151 0 0 1 30 152 236 0 110 151 107 0 +-.175 -.15 .0105 0 0 -1 16 110 202
 156 ?68 97 128 152 0 0 1 30 107 237 0 97 152 160 0 +-.175 -.1 .0105 0 0 -1 30 1
60 238 0 106 107 21 0 +-.075 -.1 .0105 0 0 -1 16 106 204 158 ?60 30 97 160 0 0 1
 30 21 239 0 30 160 8 0 +-.075 -.25 .0105 0 0 -1 16 30 205 157 ?52 11 106 21 0 0
 1 81 1 157 280 35 30 0 0 158 156 159 17 52 0 161 165 113 49 84 30 0 142 +15 161
 213 0 165 162 0 17 165 0 161 95 52 53 150 143 0 102 -17 113 0 161 52 95 79 114
 116 0 0 +17 84 0 82 78 142 79 52 30 0 113 -17 142 0 82 84 27 49 47 144 0 150 +1
5 82 215 0 142 163 0 17 27 0 82 142 78 50 164 11 0 139 +17 47 0 167 170 150 50 1
42 144 0 27 -17 150 0 167 47 102 49 165 143 0 0 +15 167 129 0 170 169 0 17 102 0
 167 150 69 53 98 104 0 0 +17 69 0 167 102 74 59 64 66 0 98 -17 74 0 167 69 170
 61 75 76 0 0 -17 170 0 167 74 47 22 139 140 0 0 -17 139 0 166 164 80 50 170 140
 0 0 +15 166 217 0 139 17 0 17 164 0 166 168 139 71 27 11 0 0 -17 80 0 166 139 1
68 22 41 128 0 170 +17 168 0 166 80 164 12 40 171 0 0 -17 41 0 72 39 75 12 80 12
8 0 168 -15 72 207 0 75 172 0 17 39 0 72 68 41 28 26 37 0 0 -17 68 0 72 75 39 61
 70 110 0 74 +14 255 172 208 174 ?111 19 72 6 173 -0 0 111 19 24 81 1 174 321 17
5 172 177 0 180 179 176 14 111 1 179 ?169 172 178 6 185 +0 0 169 172 24 14 19 22
4 180 ?172 181 183 6 7 +0 0 172 181 24 50 255 173 227 0 172 182 184 0 +-.1575 -.
15 .0105 0 1 0 0 0 1 13 24 81 0 0 0 0 0 0 10 17 14 17 218 186 ?163 0 166 6 190 -
0 0 163 0 24 81 1 186 314 175 17 187 0 0 188 189 14 163 216 188 ?162 17 82 6 191
 -0 0 162 17 24 50 190 232 0 17 191 20 0 +-.13 -.2 .0105 .98058067569092 .196116
135138184 0 -.196116135138184 .98058067569092 0 50 191 231 0 163 195 190 0 +-.09
75 -.25 .0105 0 1 0 0 0 1 51 20 233 0 181 190 7 0 --.15 -.12 .0105 0 0 -1 .005 -
1 0 0 14 181 220 193 ?19 109 192 6 20 +0 0 19 109 24 81 1 193 319 175 181 194 0
 199 180 200 14 109 210 199 ?181 101 67 6 184 -0 0 181 101 24 15 192 219 0 197 1
81 198 17 197 0 192 197 197 0 196 203 0 0 +15 198 221 0 205 181 0 17 205 0 198 2
05 205 0 136 132 0 0 -17 136 0 201 136 136 0 205 132 0 0 +15 201 128 0 136 169 1
67 14 169 116 204 ?0 111 202 6 182 -0 0 0 111 24 81 1 204 323 175 169 206 0 179
 0 210 15 202 127 0 135 169 201 50 182 186 0 169 185 173 0 +0 -.0425566360354423
5 -.0105 0 0 1 1 0 0 50 185 3 0 111 0 182 0 +0 -.04255663603544235 .0105 0 0 1 1
 0 0 17 135 0 202 135 135 0 208 127 0 0 +17 208 0 207 208 208 0 135 127 0 0 -15
 207 225 0 208 19 0 80 7 CCCCCDI12 legal_owners0 17 1 lCZ1 175 0 209 8001 0 0 0
 0 3 5 0 0 0 FFFFTFTFFFFFFFFFF2 81 1 206 301 35 169 0 204 211 215 213 81 1 179 3
22 175 111 215 0 174 204 212 83 255 3 210 .615686274509804 .811764705882353 .929
411764705882 81 1 215 302 35 111 0 179 206 214 216 83 3 212 .615686274509804 .81
1764705882353 .929411764705882 80 1 35 220 217 9000 0 0 0 0 3 6 0 0 0 FFTFTFTTFF
FFFFFFF1 81 1 214 303 35 163 0 188 215 218 219 82 255 3 216 7 2 2 81 1 188 315 1
75 163 214 0 186 222 225 81 1 218 304 35 109 0 199 214 224 221 82 3 219 7 3 2 81
 1 199 318 175 109 218 0 223 193 226 81 1 224 305 35 162 0 222 218 194 227 82 3
 221 7 4 2 14 162 214 222 ?101 163 161 6 195 +0 0 101 163 24 81 1 222 316 175 16
2 224 0 188 223 229 81 1 194 306 35 181 0 193 224 228 230 82 3 227 7 5 2 81 1 22
8 307 35 19 0 180 194 177 232 82 3 230 7 6 2 81 1 180 320 175 19 228 0 193 174 2
35 81 1 177 308 35 172 0 174 228 187 234 82 3 232 7 7 2 81 1 187 309 35 17 0 186
 177 231 233 82 3 234 7 8 2 81 1 231 310 35 1 0 240 187 0 236 82 3 233 7 9 2 81
 1 240 311 238 1 231 14 0 0 237 82 3 236 7 0 3 80 1 238 239 241 8038 0 0 0 0 0 0
 0 0 0 TTTTTTTTTTTTTFTFT10 81 1 14 312 239 1 240 2 0 0 245 98 255 6 237 80 97 11
4 116 32 50 80 1 239 242 243 8017 0 0 0 0 0 0 0 0 0 TTTTTTTTTTTTTFTFT3 84 255 6
 245 Part 279 255 13 243 SDL/TYSA_NAME79 14 241 SDL/TYSA_UNAME83 3 235 .61568627
4509804 .811764705882353 .929411764705882 81 1 223 317 175 101 211 0 222 199 244
 83 3 229 .615686274509804 .811764705882353 .929411764705882 14 101 212 223 ?109
 162 96 6 246 +0 0 109 162 24 81 1 211 300 35 101 0 223 250 206 248 83 3 244 .61
5686274509804 .811764705882353 .929411764705882 81 1 250 299 35 171 0 0 137 211
 247 82 3 248 7 0 2 16 171 19 250 ?40 90 203 249 0 0 1 81 1 137 298 35 140 0 0 1
26 250 254 82 3 247 7 21 1 81 1 126 297 35 37 0 0 155 137 255 82 3 254 7 20 1 81
 1 155 296 35 76 0 0 252 126 253 82 3 255 7 19 1 81 1 252 295 35 153 0 0 131 155
 251 82 3 253 7 18 1 16 153 9 252 ?258 203 76 260 0 0 1 81 1 131 294 35 127 0 0
 256 252 259 82 3 251 7 17 1 81 1 256 293 35 203 0 0 134 131 257 82 3 259 7 16 1
 16 203 14 256 ?197 171 153 261 0 0 1 81 1 134 292 35 132 0 0 125 256 265 82 3 2
57 7 15 1 81 1 125 291 35 116 0 0 148 134 263 82 3 265 7 14 1 81 1 148 290 35 14
3 0 0 112 125 262 82 3 263 7 13 1 81 1 112 289 35 108 0 0 147 148 264 82 3 262 7
 12 1 81 1 147 288 35 66 0 0 266 112 270 82 3 264 7 11 1 81 1 266 287 35 90 0 0
 120 147 268 82 3 270 7 10 1 16 90 24 266 ?89 116 171 121 0 0 1 81 1 120 286 35
 144 0 0 117 266 267 82 3 268 7 9 1 82 3 267 7 8 1 17 89 0 38 114 40 79 78 90 0
 84 +30 121 26 0 90 249 124 0 +-.0975 -.25 .0105 1 0 0 30 249 21 0 171 261 121 0
 +-.13 -.2 .0105 .196116135138184 -.98058067569092 0 31 261 16 0 203 260 249 0 +
-.15 -.12 .0105 0 0 1 1 0 0 .005 31 260 11 0 153 0 261 0 +-.1 -.12 .0105 0 0 1 1
 0 0 .005 17 40 0 38 89 26 71 168 171 0 164 +17 258 0 183 258 258 0 269 153 0 0
 +15 183 223 0 258 19 207 17 269 0 178 269 269 0 258 153 0 0 -15 178 6 0 269 111
 271 15 271 7 0 196 111 38 17 196 0 271 196 196 0 197 203 0 0 -50 246 229 0 101
 184 195 0 +-.125 -.1 .0105 0 1 0 0 0 1 50 184 228 0 109 173 246 0 +-.175 -.125
 .0105 1 0 0 0 0 -1 50 195 230 0 162 246 191 0 +-.075 -.175 .0105 1 0 0 0 0 -1 8
3 3 226 .615686274509804 .811764705882353 .929411764705882 83 3 225 .61568627450
9804 .811764705882353 .929411764705882 79 9 217 BTI/DetId82 3 213 7 1 2 79 15 20
9 SDL/TYSA_COLOUR83 3 200 .615686274509804 .811764705882353 .929411764705882 83
 3 189 .615686274509804 .811764705882353 .929411764705882 83 3 176 .615686274509
804 .811764705882353 .929411764705882 17 95 0 161 113 165 87 60 106 0 114 -17 60
 0 96 98 100 53 95 106 0 165 +81 1 158 279 35 106 0 0 85 157 275 81 1 156 281 35
 110 0 0 157 154 272 82 3 159 7 2 1 81 1 154 282 35 128 0 0 156 25 273 82 3 272
 7 3 1 81 1 25 283 35 11 0 0 154 118 274 82 3 273 7 4 1 81 1 118 284 35 104 0 0
 25 117 277 82 3 274 7 5 1 82 3 277 7 6 1 81 1 85 278 35 97 0 0 77 158 280 82 3
 275 7 1 1 82 3 280 7 0 1 82 3 122 7 7 1 81 1 56 266 35 59 0 0 0 91 279 81 1 57
 268 35 53 0 0 91 93 276 82 3 92 7 1 0 81 1 93 269 35 87 0 0 57 55 278 82 3 276
 7 2 0 81 1 55 270 35 49 0 0 93 63 281 82 3 278 7 3 0 81 1 63 271 35 79 0 0 55 6
2 282 82 3 281 7 4 0 82 3 282 7 5 0 82 3 279 7 0 0 81 1 33 276 35 50 0 0 29 77 2
84 82 3 83 7 11 0 82 3 284 7 10 0 81 1 45 273 35 28 0 0 62 32 283 82 3 73 7 8 0
 82 3 283 7 7 0 82 3 65 7 6 0 82 3 31 7 9 0 19 18 242 0 1 0 10 6 0 S0 74 4 CI16
 index_map_offset0 0 1 dCCZ20 16 5 0 0 231 240 14 2 204 0 0 0 0 0 0 0 0 0 0 0 0
 0 0 0 80 1 13 175 285 8040 0 0 0 0 3 5 0 0 0 TTTFFFFFFFFFFFFFF2 83 3 15 .615686
274509804 .811764705882353 .929411764705882 79 17 285 SDL/TYSA_COLOUR_21 0 
