**ABCDEFGHIJKLMNOPQRSTUVWXYZabcdefghijklmnopqrstuvwxyz**************************
**PARASOLID !"#$%&'()*+,-./:;<=>?@[\]^_`{|}~0123456789**************************
**PART1;
MC=unknown;
MC_MODEL=unknown;
MC_ID=unknown;
OS=unknown;
OS_RELEASE=unknown;
FRU=Parasolid 37.1.212;
APPL=Onshape;
SITE=unknown;
USER=unknown;
FORMAT=text;
GUISE=transmit;
KEY=BTGapi::writeModels_.xmt;
FILE=BTGapi::writeModels_.xmt;
DATE=2026-04-21T02:49:21 (UTC);
**PART2;
SCH=SCH_3701212_37102;
USFLD_SIZE=0;
**PART3;
**END_OF_HEADER*****************************************************************
T51 : TRANSMIT FILE created by modeller version 370121223 SCH_3701212_37102_1300
6239 0 12 36 CCCI7 lattice222 0 CCCI4 mesh1006 0 I8 polyline1008 0 CCCCCCCDI5 ow
ner1040 0 CCCI16 boundary_lattice222 0 CCCI13 boundary_mesh1006 0 I17 boundary_p
olyline1008 0 CCCA16 index_map_offset0 0 1 dA9 index_map82 0 A17 node_id_index_m
ap82 0 A20 schema_embedding_map82 0 A5 child12 0 A14 lowest_node_id0 0 1 dA16 me
sh_offset_data206 0 Z1 950 2 3 0 0 0 0 0 0 0 1e3 1e-8 0 4 5 1 0 1 2 6 0 7 8 9 0
 0 10 11 12 0 0 0 0 0 0 0 81 255 1 2 931 13 1 14 0 0 0 15 70 11 CI9 list_type0 0
 1 uI10 notransmit0 0 1 lCCCDCCDI12 finger_index0 0 1 dI12 finger_block1012 0 CZ
3 0 4 T1 0 0 5 20 1 16 16 13 255 6 298 0 1 0 17 0 0 18 0 51 255 7 293 0 19 20 0
 0 --.1 -.12 .0175 0 0 -1 .005 -1 0 0 31 255 8 413 0 11 21 0 0 +-.1 .02 .0125 0
 0 1 1 0 0 .01 29 255 9 421 0 12 22 0 -.09 -.05 .0175 19 9 CCCCCCI5 frame230 0 C
A5 owner12 0 Z10 122 0 1 18 0 23 0 V0 16 255 11 411 24 ?25 0 27 8 0 0 1 18 255 1
2 417 30 29 0 26 9 ?1 81 1 30 910 28 12 0 0 34 35 32 17 255 29 0 33 31 31 12 38
 40 0 36 -18 26 384 39 37 12 41 22 ?1 81 1 39 907 28 26 0 0 45 43 42 17 37 0 44
 46 50 26 48 47 0 49 -18 41 116 51 55 26 52 53 ?1 29 22 388 0 26 54 9 -.11 -.05
 .0125 29 54 260 0 57 60 22 -.09 .02 .0125 18 57 239 59 25 52 56 54 ?1 29 60 262
 0 56 53 54 -.09 -.12 .0125 18 56 247 58 61 57 62 60 ?1 29 53 118 0 41 64 60 -.1
1 .02 .0175 29 64 98 0 52 63 53 -.11 -.12 .0175 18 52 96 65 67 41 57 64 ?1 29 63
 802 0 62 70 64 -.09 .02 .0175 18 62 548 69 66 56 68 63 ?1 29 70 804 0 68 75 63
 -.11 .02 .0125 18 68 546 71 73 62 72 70 ?1 29 75 805 0 72 74 70 -.09 -.12 .0175
 18 72 629 76 80 68 77 75 ?1 29 74 808 0 77 78 75 -.11 -.12 .0125 18 77 631 79 8
2 72 85 74 ?1 29 78 810 0 85 84 74 -.11 -.05 .0175 18 85 713 34 31 77 81 78 ?1 2
9 84 811 0 81 0 78 -.09 -.05 .0125 18 81 715 43 83 85 0 84 ?1 81 1 43 908 28 81
 0 0 39 34 89 17 83 0 90 87 61 81 88 86 0 50 +15 255 90 279 0 83 93 0 17 87 0 90
 66 83 57 50 95 0 91 +17 61 0 90 83 94 56 92 96 0 88 +17 88 0 100 98 97 56 83 86
 0 99 -16 86 221 101 ?83 105 95 103 95 95 1 17 50 0 44 37 25 81 87 95 0 97 -15 4
4 395 0 46 102 0 17 25 0 44 50 46 57 73 11 0 87 +16 95 390 104 ?87 86 106 103 86
 86 1 17 97 0 100 88 110 81 107 108 0 48 -15 100 401 0 88 109 0 17 110 0 100 97
 98 26 82 112 0 107 +17 107 0 115 48 48 26 97 108 0 0 +16 108 400 114 ?107 27 47
 111 47 47 1 17 48 0 115 107 107 81 37 47 0 0 +15 115 739 0 48 113 0 16 47 394 1
16 ?48 108 96 111 108 108 1 81 1 116 926 28 47 0 0 114 117 119 16 96 266 118 ?61
 47 120 122 0 0 1 31 111 396 0 47 122 21 0 --.1 -.05 .0125 0 0 1 1 0 0 .01 30 25
5 122 297 0 96 125 111 0 +-.09 -.12 .0175 0 0 -1 31 21 407 0 27 111 8 0 +-.1 -.1
2 .0125 0 0 1 1 0 0 .01 16 27 405 124 ?98 11 108 21 0 0 1 81 1 124 892 28 27 0 0
 69 24 121 17 98 0 100 110 88 77 99 27 0 0 +17 99 0 123 92 130 56 98 27 0 0 -15
 123 281 0 130 126 128 17 92 0 123 67 99 72 61 96 0 94 -17 130 0 123 99 67 77 12
7 129 0 98 +17 67 0 123 130 92 52 80 131 0 127 +17 127 0 135 132 82 52 130 129 0
 133 -16 129 265 134 ?130 137 140 125 0 0 1 81 1 134 896 28 129 0 0 139 118 136
 16 137 263 138 ?144 120 129 145 0 0 1 16 140 51 142 ?132 129 143 141 143 143 1
 30 125 296 0 129 148 122 0 +-.11 -.12 .0175 0 0 -1 30 148 295 0 120 145 125 0 +
-.09 .02 .0175 0 0 -1 16 120 264 150 ?91 96 137 148 0 0 1 30 145 294 0 137 146 1
48 0 +-.11 .02 .0175 0 0 -1 30 146 255 0 112 103 145 0 +-.11 -.085 .0125 -198254
1115402065e-31 1 0 16 112 215 35 ?110 149 105 146 105 105 1 30 103 256 0 86 141
 146 0 +-.09 -.085 .0125 -1982541115402065e-31 1 0 30 141 53 0 140 147 103 0 +-.
11 -.085 .0175 -1982541115402065e-31 1 0 30 147 43 0 151 155 141 0 +-.09 -.085 .
0175 -1982541115402065e-31 1 0 16 151 41 153 ?152 143 149 147 149 149 1 31 155 7
78 0 106 154 147 0 +-.1 .02 .0175 0 0 1 1 0 0 .01 16 106 527 139 ?156 95 131 155
 0 0 1 31 154 783 0 131 160 155 0 +-.1 -.12 .0175 0 0 1 1 0 0 .01 16 131 617 158
 ?67 106 40 154 0 0 1 31 160 786 0 157 159 154 0 --.1 -.05 .0175 0 0 1 1 0 0 .01
 16 157 689 161 ?36 40 165 160 40 40 1 31 159 789 0 162 163 160 0 +-.1 -.05 .010
5 0 0 1 1 0 0 .01 16 162 692 164 ?167 170 169 159 0 0 1 31 163 790 0 169 166 159
 0 +-.1 -.05 .0105 0 0 1 1 0 0 .005 16 169 710 168 ?171 162 0 163 0 0 1 31 166 7
91 0 172 174 163 0 +-.1 -.05 .0195 0 0 1 1 0 0 .01 16 172 707 173 ?175 177 170 1
66 0 0 1 31 174 792 0 170 180 166 0 +-.1 -.05 .0195 0 0 1 1 0 0 .005 16 170 704
 179 ?176 172 162 174 0 0 1 31 180 793 0 178 185 174 0 +-.1 -.12 .0105 0 0 1 1 0
 0 .005 16 178 623 181 ?183 182 177 180 0 0 1 31 185 794 0 177 184 180 0 +-.1 -.
12 .0105 0 0 -1 1 0 0 .01 16 177 626 186 ?190 178 172 185 0 0 1 31 184 795 0 187
 188 185 0 +-.1 -.12 .0195 0 0 1 1 0 0 .005 16 187 614 189 ?192 195 182 184 0 0
 1 31 188 796 0 182 194 184 0 +-.1 -.12 .0195 0 0 -1 1 0 0 .01 16 182 620 191 ?1
93 187 178 188 0 0 1 31 194 797 0 199 200 188 0 +-.1 .02 .0105 0 0 -1 1 0 0 .01
 16 199 539 197 ?198 196 195 194 0 0 1 31 200 798 0 195 203 194 0 +-.1 .02 .0105
 0 0 1 1 0 0 .005 16 195 542 205 ?201 199 187 200 0 0 1 31 203 799 0 165 204 200
 0 +-.1 .02 .0195 0 0 -1 1 0 0 .01 16 165 530 202 ?206 157 196 203 0 0 1 31 204
 800 0 196 0 203 0 +-.1 .02 .0195 0 0 1 1 0 0 .005 16 196 536 210 ?208 165 199 2
04 0 0 1 81 1 210 538 28 196 0 0 202 197 207 17 208 0 209 208 208 0 211 196 0 0
 +15 209 581 0 208 215 0 17 211 0 213 211 211 0 208 196 0 0 -15 213 586 0 211 21
2 0 14 255 212 582 214 ?0 216 220 6 217 +0 0 0 216 23 81 1 214 950 218 212 219 0
 222 0 225 14 216 666 222 ?212 224 221 6 223 +0 0 212 224 23 15 220 585 0 226 21
2 213 50 255 217 777 0 212 0 227 0 +-.1 -.05 .0195 0 0 1 1 0 0 13 23 123 0 0 0 0
 0 0 10 17 14 17 444 229 ?228 0 230 6 232 +228 228 228 0 23 81 1 229 932 218 17
 235 0 0 234 231 14 228 1 234 ?102 17 233 6 232 +17 17 102 17 23 15 230 443 0 55
 17 0 50 232 3 0 17 240 236 0 +-.1 -.05 .0175 0 0 1 1 0 0 51 240 767 0 238 237 2
32 0 --.1 -.05 .0195 0 0 -1 .01 -1 0 0 50 236 251 0 102 232 239 0 +-.1 -.05 .012
5 0 0 1 1 0 0 14 102 414 241 ?109 228 44 6 236 -109 109 109 228 23 51 239 287 0
 215 236 245 0 --.1 .02 .0175 0 0 -1 .005 -1 0 0 14 215 268 242 ?238 243 244 6 2
39 +0 0 238 243 23 51 245 288 0 247 239 250 0 +-.1 .02 .0175 0 0 -1 .01 -1 0 0 1
4 247 272 249 ?246 93 248 6 245 +0 0 246 93 23 51 250 289 0 254 245 255 0 --.1 -
.05 .0175 0 0 -1 .005 -1 0 0 14 254 274 252 ?253 113 251 6 250 +0 0 253 113 23 5
0 255 290 0 246 250 258 0 +-.11 -.085 .0175 -1 -1982541115402065e-31 0 198254111
5402065e-31 -1 0 14 246 278 260 ?256 247 135 6 255 +0 0 256 247 23 50 258 291 0
 93 255 20 0 +-.09 -.085 .0175 -1 -1982541115402065e-31 0 1982541115402065e-31 -
1 0 14 93 280 259 ?247 126 90 6 258 -0 0 247 126 23 51 20 292 0 126 258 7 0 +-.1
 -.12 .0175 0 0 -1 .01 -1 0 0 14 126 282 257 ?93 109 123 6 20 +0 0 93 109 23 81
 1 257 936 218 126 261 0 265 259 263 14 109 183 265 ?126 102 100 6 236 -102 102
 126 102 23 81 1 265 935 218 109 262 0 241 257 264 80 7 CCCCCDI12 legal_owners0
 17 1 lCZ1 218 0 266 8001 0 0 0 0 3 5 0 0 0 FFFFTFTFFFFFFFFFF2 81 1 262 919 28 1
09 0 265 270 268 267 81 1 241 934 218 102 268 0 234 265 269 83 255 3 264 0 0 1 8
1 1 268 920 28 102 0 241 262 271 275 81 1 234 933 218 228 271 0 229 241 272 83 3
 269 0 0 1 81 1 271 921 28 228 0 234 268 235 273 83 3 272 0 0 1 80 1 28 274 277
 9000 0 0 0 0 3 6 0 0 0 FFTFTFTTFFFFFFFFF1 81 1 235 922 28 17 0 229 271 280 279
 82 255 3 273 19 9 2 81 1 280 923 28 113 0 276 235 278 281 82 3 279 19 10 2 14 1
13 735 276 ?254 256 282 6 240 -238 238 254 256 23 81 1 276 941 218 113 280 0 284
 252 283 81 1 278 924 28 238 0 285 280 114 287 82 3 281 19 11 2 14 238 745 285 ?
224 215 33 6 240 -113 113 224 215 23 81 1 285 947 218 238 278 0 242 290 289 81 1
 114 925 28 108 0 0 278 116 286 82 3 287 19 12 2 82 3 286 19 16 1 81 1 242 946 2
18 215 288 0 295 285 291 81 1 290 948 218 224 293 0 285 222 292 83 3 289 0 0 1 1
4 224 750 290 ?216 238 294 6 296 +0 0 216 238 23 81 1 293 752 28 224 0 290 168 3
00 297 81 1 222 949 218 216 298 0 290 214 299 83 3 292 0 0 1 81 1 298 668 28 216
 0 222 186 302 305 83 3 299 0 0 1 81 1 186 628 28 177 0 0 181 298 304 81 1 302 6
73 28 253 0 301 298 164 303 82 3 305 18 5 2 14 253 671 301 ?19 254 309 6 310 -0
 0 19 254 23 81 1 301 943 218 253 302 0 252 307 308 81 1 164 694 28 162 0 0 302
 179 306 82 3 303 18 4 2 81 1 179 706 28 170 0 0 164 173 313 82 3 306 18 8 1 81
 1 173 709 28 172 0 0 179 168 315 82 3 313 18 11 1 81 1 168 712 28 169 0 0 173 2
93 311 82 3 315 18 9 1 82 3 311 18 10 1 81 1 252 942 218 254 314 0 276 301 312 8
1 1 307 944 218 19 316 0 301 295 320 83 3 308 0 0 1 14 19 284 307 ?243 253 318 6
 7 +0 0 243 253 23 81 1 316 901 28 19 0 307 288 261 317 81 1 295 945 218 243 319
 0 307 242 321 83 3 320 0 0 1 14 243 587 295 ?215 19 325 6 227 -0 0 215 19 23 81
 1 319 589 28 243 0 295 219 189 323 83 3 321 0 0 1 81 1 219 584 28 212 0 214 205
 319 322 81 1 189 616 28 187 0 0 319 191 324 82 3 323 18 1 2 81 1 191 622 28 182
 0 0 189 181 326 82 3 324 18 3 1 81 1 181 625 28 178 0 0 191 186 330 82 3 326 18
 5 1 82 3 330 18 2 1 81 1 205 544 28 195 0 0 197 219 327 82 3 322 18 2 2 81 1 19
7 541 28 199 0 0 210 205 328 82 3 327 18 0 1 82 3 328 18 6 1 15 325 590 0 198 24
3 329 50 227 776 0 243 217 223 0 +-.1 -.05 .0105 0 0 1 1 0 0 50 223 773 0 216 22
7 310 0 +-.1 -.05 .0195 0 0 1 1 0 0 50 310 772 0 253 223 296 0 +-.1 -.05 .0105 0
 0 1 1 0 0 50 296 769 0 224 310 237 0 +-.1 -.05 .0195 0 0 1 1 0 0 50 237 768 0 2
56 296 240 0 +-.1 -.05 .0105 0 0 1 1 0 0 14 256 755 284 ?113 246 332 6 237 -0 0
 113 246 23 81 1 284 940 218 256 300 0 260 276 335 15 332 758 0 171 256 334 17 1
71 0 332 171 171 0 331 169 0 0 +15 334 759 0 333 256 0 17 333 0 334 333 333 0 16
7 162 0 0 -17 167 0 282 167 167 0 333 162 0 0 +15 282 738 0 167 113 115 17 331 0
 251 331 331 0 171 169 0 0 -15 251 725 0 331 254 336 15 336 744 0 176 254 0 17 1
76 0 336 176 176 0 337 170 0 0 +17 337 0 294 337 337 0 176 170 0 0 -15 294 753 0
 337 224 339 15 339 754 0 175 224 0 17 175 0 339 175 175 0 338 172 0 0 +17 338 0
 340 338 338 0 175 172 0 0 -15 340 749 0 338 238 0 81 1 300 757 28 256 0 284 293
 342 345 81 1 260 939 218 246 344 0 249 284 341 83 3 335 0 0 1 81 1 344 905 28 2
46 0 260 314 45 343 81 1 249 938 218 247 350 0 259 260 346 83 3 341 0 0 1 81 1 3
50 903 28 247 0 249 261 314 348 81 1 259 937 218 93 45 0 257 249 347 83 3 346 0
 0 1 81 1 45 906 28 93 0 259 344 39 349 83 3 347 0 0 1 82 3 349 19 6 2 81 1 261
 902 28 126 0 257 316 350 351 81 1 314 904 28 254 0 252 350 344 355 82 3 348 19
 3 2 82 3 355 19 4 2 82 3 351 19 2 2 82 3 343 19 5 2 81 1 342 883 28 1 0 352 300
 58 353 82 3 345 18 9 2 81 1 352 929 354 1 342 14 0 0 357 81 1 58 884 28 56 0 0
 342 76 360 82 3 353 17 0 3 81 1 76 885 28 72 0 0 58 79 359 82 3 360 19 0 0 81 1
 79 886 28 77 0 0 76 65 356 82 3 359 19 1 0 81 1 65 887 28 52 0 0 79 71 358 82 3
 356 19 2 0 81 1 71 888 28 68 0 0 65 51 364 82 3 358 19 3 0 81 1 51 889 28 41 0
 0 71 59 365 82 3 364 19 4 0 81 1 59 890 28 57 0 0 51 69 362 82 3 365 19 5 0 81
 1 69 891 28 62 0 0 59 124 363 82 3 362 19 6 0 82 3 363 19 7 0 80 1 354 361 368
 8038 0 0 0 0 0 0 0 0 0 TTTTTTTTTTTTTFTFT10 81 1 14 930 361 1 352 2 0 0 370 98 2
55 6 357 80 97 114 116 32 51 80 1 361 366 369 8017 0 0 0 0 0 0 0 0 0 TTTTTTTTTTT
TTFTFT3 84 255 6 370 Part 379 255 13 369 SDL/TYSA_NAME79 14 368 SDL/TYSA_UNAME17
 198 0 325 198 198 0 367 199 0 0 +15 329 591 0 201 243 0 17 201 0 329 201 201 0
 371 195 0 0 +17 371 0 244 371 371 0 201 195 0 0 -15 244 570 0 371 215 209 17 36
7 0 375 367 367 0 198 199 0 0 -15 375 560 0 367 247 373 15 373 576 0 206 247 0 1
7 206 0 373 206 206 0 226 165 0 0 +17 226 0 220 226 226 0 206 165 0 0 -81 1 288
 900 28 215 0 242 150 316 372 82 3 317 19 1 2 81 1 150 899 28 120 0 0 138 288 37
4 82 3 372 19 0 2 81 1 138 898 28 137 0 0 118 150 376 82 3 374 19 7 1 81 1 118 8
97 28 96 0 0 134 138 380 82 3 376 19 6 1 82 3 380 19 5 1 15 318 641 0 378 19 377
 17 378 0 318 378 378 0 183 178 0 0 -15 377 660 0 192 19 0 17 192 0 377 192 192
 0 379 187 0 0 +17 379 0 221 379 379 0 192 187 0 0 -15 221 669 0 379 216 381 15
 381 670 0 385 216 0 17 385 0 381 385 385 0 193 182 0 0 -17 193 0 382 193 193 0
 385 182 0 0 +15 382 665 0 193 126 0 17 183 0 309 183 183 0 378 178 0 0 +15 309
 674 0 183 253 383 15 383 675 0 190 253 0 17 190 0 383 190 190 0 384 177 0 0 +17
 384 0 128 384 384 0 190 177 0 0 -15 128 654 0 384 126 382 83 3 312 0 0 1 82 3 3
04 18 4 1 82 3 297 18 10 2 83 3 291 0 0 1 15 33 748 0 29 238 340 83 3 283 0 0 1
 79 9 277 BTI/DetId82 3 275 19 8 2 81 1 270 918 28 149 0 0 153 262 387 82 3 267
 19 7 2 16 149 418 270 ?390 151 112 147 151 151 1 81 1 153 917 28 151 0 0 104 27
0 389 82 3 387 19 15 1 81 1 104 916 28 95 0 0 101 153 386 82 3 389 19 14 1 81 1
 101 915 28 86 0 0 388 104 391 82 3 386 19 13 1 81 1 388 914 28 143 0 0 142 101
 392 82 3 391 19 12 1 16 143 423 388 ?394 140 151 141 140 140 1 81 1 142 913 28
 140 0 0 393 388 395 82 3 392 19 11 1 81 1 393 912 28 105 0 0 35 142 397 82 3 39
5 19 10 1 16 105 385 393 ?46 112 86 146 112 112 1 81 1 35 911 28 112 0 0 30 393
 400 82 3 397 19 9 1 82 3 400 19 8 1 17 46 0 44 25 37 68 49 105 0 144 +17 49 0 1
35 82 144 26 46 105 0 110 -17 144 0 135 49 394 68 399 137 0 0 +15 135 448 0 132
 246 0 17 394 0 135 144 132 41 396 143 0 399 +17 399 0 248 156 73 41 144 137 0 0
 -15 248 271 0 91 247 375 17 156 0 248 91 399 62 55 106 0 0 +17 73 0 248 399 91
 68 25 11 0 46 -17 91 0 248 73 156 57 66 120 0 0 +17 66 0 90 398 87 62 91 120 0
 390 -17 398 0 90 94 66 12 390 149 0 152 -17 390 0 230 55 36 62 398 149 0 156 +1
7 55 0 230 396 390 41 156 106 0 394 -17 36 0 230 390 396 12 31 157 0 398 +17 396
 0 230 36 55 85 394 143 0 132 -17 31 0 33 29 29 85 36 157 0 38 -17 38 0 233 133
 152 85 29 40 0 396 +15 233 438 0 80 228 0 17 133 0 233 80 38 52 132 140 0 0 -17
 152 0 233 38 80 12 94 151 0 0 +16 40 683 117 ?38 131 157 160 157 157 1 81 1 117
 927 28 40 0 0 116 161 405 81 1 161 928 28 157 0 0 117 0 401 82 3 405 19 18 1 82
 3 401 19 19 1 17 80 0 233 152 133 72 67 131 0 92 -17 94 0 90 61 398 72 152 151
 0 0 -17 132 0 135 394 127 85 133 140 0 0 +17 82 0 135 127 49 77 110 112 0 130 -
79 15 266 SDL/TYSA_COLOUR83 3 263 0 0 1 83 3 231 0 0 1 83 3 225 0 0 1 81 1 202 5
32 28 165 0 0 0 210 403 82 3 207 18 1 1 82 3 403 18 7 1 81 1 158 894 28 131 0 0
 24 139 402 81 1 24 893 28 11 0 0 124 158 404 81 1 139 895 28 106 0 0 158 134 40
6 82 3 402 19 2 1 82 3 406 19 3 1 82 3 404 19 1 1 82 3 136 19 4 1 82 3 121 19 0
 1 82 3 119 19 17 1 81 1 34 909 28 85 0 0 43 30 410 82 3 89 19 9 0 82 3 410 19 1
0 0 82 3 42 19 8 0 82 3 32 19 11 0 19 18 299 0 1 0 10 6 0 S0 74 4 CI16 index_map
_offset0 0 1 dCCZ20 16 5 0 0 161 352 14 2 214 0 0 0 0 0 0 0 0 0 0 0 0 0 0 0 80 1
 13 218 407 8040 0 0 0 0 3 5 0 0 0 TTTFFFFFFFFFFFFFF2 83 3 15 0 0 1 79 17 407 SD
L/TYSA_COLOUR_21 0 
