**ABCDEFGHIJKLMNOPQRSTUVWXYZabcdefghijklmnopqrstuvwxyz**************************
**PARASOLID !"#$%&'()*+,-./:;<=>?@[\]^_`{|}~0123456789**************************
**PART1;
MC=unknown;
MC_MODEL=unknown;
MC_ID=unknown;
OS=unknown;
OS_RELEASE=unknown;
FRU=Parasolid 37.1.212;
APPL=Onshape;
SITE=unknown;
USER=unknown;
FORMAT=text;
GUISE=transmit;
KEY=BTGapi::writeModels_.xmt;
FILE=BTGapi::writeModels_.xmt;
DATE=2026-04-21T02:50:04 (UTC);
**PART2;
SCH=SCH_3701212_37102;
USFLD_SIZE=0;
**PART3;
**END_OF_HEADER*****************************************************************
T51 : TRANSMIT FILE created by modeller version 370121223 SCH_3701212_37102_1300
6239 0 12 36 CCCI7 lattice222 0 CCCI4 mesh1006 0 I8 polyline1008 0 CCCCCCCDI5 ow
ner1040 0 CCCI16 boundary_lattice222 0 CCCI13 boundary_mesh1006 0 I17 boundary_p
olyline1008 0 CCCA16 index_map_offset0 0 1 dA9 index_map82 0 A17 node_id_index_m
ap82 0 A20 schema_embedding_map82 0 A5 child12 0 A14 lowest_node_id0 0 1 dA16 me
sh_offset_data206 0 Z1 1172 2 3 0 0 0 0 0 0 0 1e3 1e-8 0 4 5 1 0 1 2 6 0 7 8 9 0
 0 10 11 12 0 0 0 0 0 0 0 81 255 1 2 1149 13 1 14 0 0 0 15 70 11 CI9 list_type0
 0 1 uI10 notransmit0 0 1 lCCCDCCDI12 finger_index0 0 1 dI12 finger_block1012 0
 CZ3 0 4 T1 0 0 5 20 1 16 16 13 255 6 477 0 1 0 17 0 0 18 0 51 255 7 464 0 19 20
 0 0 +-.15 .02 .0105 0 0 -1 .005 -1 0 0 30 255 8 796 0 11 21 0 0 +-.017022044530
5492 .150002 -.0105 0 -1 0 29 255 9 819 0 12 22 0 -.0170220445305492 .05 .0105 1
9 9 CCCCCCI5 frame230 0 CA5 owner12 0 Z10 162 0 1 18 0 23 0 V0 16 255 11 794 24
 ?25 0 27 8 0 0 1 18 255 12 815 30 29 0 26 9 ?1 81 1 30 1073 28 12 0 0 34 24 35
 17 255 29 0 32 33 31 12 38 40 0 36 -18 26 810 34 39 12 37 22 ?1 81 1 34 1072 28
 26 0 0 41 30 45 17 39 0 43 42 44 26 46 50 0 48 -18 37 800 41 33 26 47 49 ?1 29
 22 814 0 26 49 9 .0170220445305492 .05 .0105 29 49 804 0 37 51 22 -.01702204453
05492 .15 .0105 29 51 787 0 47 55 49 .0170220445305492 .15 -.0105 18 47 783 52 5
3 37 54 51 ?1 29 55 385 0 57 60 51 .05 .05 -.0105 18 57 320 59 56 58 61 55 ?1 29
 60 386 0 61 62 55 -.05 .05 -.0105 18 61 324 64 63 57 65 60 ?1 29 62 387 0 65 67
 60 -.0788675134594812 -693889390390723e-32 -.0105 18 65 328 70 69 61 66 62 ?1 2
9 67 388 0 66 68 62 -.175 0 -.0105 18 66 332 75 71 65 73 67 ?1 29 68 389 0 73 72
 67 -.175 .05 -.0105 18 73 336 74 76 66 80 68 ?1 29 72 390 0 80 77 68 -.11201807
40952492 .05 -.0105 18 80 340 78 79 73 81 72 ?1 29 77 391 0 81 85 72 -.05 .15 -.
0105 18 81 344 83 82 80 84 77 ?1 29 85 392 0 84 89 77 .05 .15 -.0105 18 84 348 9
0 87 81 88 85 ?1 29 89 393 0 88 86 85 .1120180740952492 .05 -.0105 18 88 352 93
 95 84 91 89 ?1 29 86 394 0 91 94 89 .175 .05 -.0105 18 91 356 92 96 88 100 86 ?
1 29 94 395 0 100 98 86 .175 693889390390723e-31 -.0105 18 100 360 97 99 91 101
 94 ?1 29 98 396 0 101 105 94 .0788675134594812 -693889390390723e-32 -.0105 18 1
01 364 103 102 100 104 98 ?1 29 105 158 0 54 106 98 .05 .05 .0105 18 54 156 110
 107 47 108 105 ?1 29 106 148 0 108 109 105 -.05 .05 .0105 18 108 146 112 38 54
 115 106 ?1 29 109 143 0 115 114 106 -.0788675134594812 -693889390390723e-32 .01
05 18 115 141 111 113 108 116 109 ?1 29 114 138 0 116 117 109 -.175 0 .0105 18 1
16 136 119 118 115 120 114 ?1 29 117 133 0 120 122 114 -.175 .05 .0105 18 120 13
1 125 124 116 121 117 ?1 29 122 128 0 121 123 117 -.1120180740952492 .05 .0105 1
8 121 126 130 126 120 128 122 ?1 29 123 123 0 128 127 122 -.05 .15 .0105 18 128
 121 129 131 121 135 123 ?1 29 127 118 0 135 132 123 .05 .15 .0105 18 135 116 13
3 134 128 136 127 ?1 29 132 113 0 136 140 127 .1120180740952492 .05 .0105 18 136
 111 138 137 135 139 132 ?1 29 140 108 0 139 144 132 .175 .05 .0105 18 139 106 1
45 142 136 143 140 ?1 29 144 103 0 143 141 140 .175 693889390390723e-31 .0105 18
 143 101 148 150 139 58 144 ?1 29 141 98 0 58 146 144 .0788675134594812 -6938893
90390723e-32 .0105 18 58 96 149 147 143 57 141 ?1 29 146 1027 0 104 151 141 .017
0220445305492 .15 .0105 18 104 961 155 44 101 153 146 ?1 29 151 1029 0 153 152 1
46 -.0170220445305492 .15 -.0105 18 153 960 154 156 104 160 151 ?1 29 152 1031 0
 160 158 151 -.0170220445305492 .05 -.0105 18 160 963 157 159 153 161 152 ?1 29
 158 1034 0 161 0 152 .0170220445305492 .05 -.0105 18 161 965 165 162 160 0 158
 ?1 81 1 165 1068 28 161 0 0 154 157 163 17 162 0 164 159 53 161 167 27 0 170 -1
5 255 164 988 0 156 169 0 17 159 0 164 156 162 160 170 166 0 25 -17 53 0 164 162
 156 47 168 171 0 167 +17 167 0 172 87 174 47 162 27 0 173 +16 27 788 175 ?167 1
1 177 21 0 0 1 17 170 0 180 179 176 161 159 166 0 174 +15 180 838 0 176 178 0 17
 179 0 180 107 170 57 174 185 0 0 -17 176 0 180 170 181 160 63 183 0 0 -16 166 9
54 182 ?170 184 171 186 184 184 1 17 174 0 172 167 190 161 179 185 0 0 +15 172 2
53 0 174 187 0 17 190 0 172 174 102 57 188 189 0 179 -16 185 254 191 ?174 195 18
3 193 183 183 1 81 1 191 1058 28 185 0 0 192 194 199 16 195 11 200 ?197 198 185
 196 0 0 1 16 183 774 194 ?63 185 203 193 185 185 1 30 193 369 0 185 205 201 0 +
-.025 .05 -.0105 -1 0 0 30 205 370 0 203 204 193 0 +-.0644337567297406 .025 -.01
05 -.5 -.866025403784439 0 30 201 465 0 202 193 206 0 +.05 .05 .0105 0 0 -1 16 2
02 397 210 ?56 208 207 201 0 0 1 30 206 466 0 208 201 209 0 +-.05 .05 .0105 0 0
 -1 16 208 398 211 ?181 215 202 206 0 0 1 30 209 467 0 215 206 213 0 +-.07886751
34594812 -693889390390723e-32 .0105 0 0 -1 16 215 399 212 ?69 214 208 209 0 0 1
 30 213 468 0 214 209 216 0 +-.175 0 .0105 0 0 -1 16 214 400 220 ?217 218 215 21
3 0 0 1 30 216 469 0 218 213 219 0 +-.175 .05 .0105 0 0 -1 16 218 401 222 ?225 2
24 214 216 0 0 1 30 219 470 0 224 216 221 0 +-.1120180740952492 .05 .0105 0 0 -1
 16 224 402 223 ?226 227 218 219 0 0 1 30 221 471 0 227 219 229 0 +-.05 .15 .010
5 0 0 -1 16 227 403 228 ?82 230 224 221 0 0 1 30 229 472 0 230 221 232 0 +.05 .1
5 .0105 0 0 -1 16 230 404 235 ?234 231 227 229 0 0 1 30 232 473 0 231 229 233 0
 +.1120180740952492 .05 .0105 0 0 -1 16 231 405 240 ?95 236 230 232 0 0 1 30 233
 474 0 236 232 238 0 +.175 .05 .0105 0 0 -1 16 236 406 237 ?96 239 231 233 0 0 1
 30 238 475 0 239 233 241 0 +.175 693889390390723e-31 .0105 0 0 -1 16 239 407 24
5 ?99 177 236 238 0 0 1 30 241 476 0 177 238 21 0 +.0788675134594812 -6938893903
90723e-32 .0105 0 0 -1 16 177 408 242 ?243 27 239 241 0 0 1 30 21 790 0 27 241 8
 0 -.0170220445305492 .150002 -.0105 0 -1 0 81 1 242 552 28 177 0 0 210 235 244
 17 243 0 246 250 147 101 248 177 0 188 +15 246 429 0 250 247 0 17 250 0 246 249
 243 100 102 254 0 255 +17 147 0 246 243 249 58 150 252 0 253 -17 248 0 251 258
 188 58 243 177 0 0 -17 188 0 251 248 56 101 190 189 0 0 +15 251 431 0 188 260 0
 17 56 0 251 188 258 57 107 202 0 190 +16 189 300 256 ?188 254 259 257 0 0 1 81
 1 256 573 28 189 0 0 261 265 263 16 254 296 262 ?250 264 189 266 0 0 1 16 259 3
04 270 ?268 189 267 269 0 0 1 30 257 380 0 189 269 266 0 +.0644337567297406 .025
 -.0105 .5 -.866025403784439 0 31 255 269 381 0 259 271 257 0 +.15 .02 -.0105 0
 0 1 1 0 0 .005 30 266 379 0 254 257 275 0 +.1269337567297406 0 -.0105 1 0 0 30
 275 378 0 264 266 272 0 +.175 .025 -.0105 0 -1 0 16 264 292 273 ?255 274 254 27
5 0 0 1 30 272 377 0 274 275 277 0 +.1435090370476246 .05 -.0105 1 0 0 16 274 28
8 280 ?279 276 264 272 0 0 1 30 277 376 0 276 272 278 0 +.0810090370476247 .1 -.
0105 .527050614810579 -.849833895198227 0 16 276 284 281 ?282 284 274 277 0 0 1
 30 278 375 0 283 277 285 0 +0 .15 -.0105 1 0 0 16 283 280 287 ?290 289 284 278
 284 284 1 30 285 374 0 289 278 286 0 +-.0810090370476247 .1 -.0105 -.5270506148
10579 -.849833895198227 0 16 289 276 288 ?79 295 283 285 0 0 1 30 286 373 0 295
 285 291 0 +-.1435090370476246 .05 -.0105 -1 0 0 16 295 272 293 ?76 292 289 286
 0 0 1 30 291 372 0 292 286 204 0 +-.175 .025 -.0105 0 -1 0 16 292 268 294 ?71 2
96 295 291 0 0 1 30 204 371 0 296 291 205 0 +-.1269337567297406 0 -.0105 1 0 0 1
6 296 264 300 ?297 203 292 204 0 0 1 81 1 300 563 28 296 0 0 212 298 299 17 297
 0 301 305 217 65 303 296 0 302 +16 203 260 304 ?302 183 296 205 0 0 1 81 1 304
 591 28 203 0 0 309 310 307 17 302 0 308 303 63 65 306 203 0 0 +15 308 789 0 290
 313 0 17 303 0 308 315 302 66 297 296 0 0 -17 63 0 308 302 25 61 176 183 0 181
 +17 306 0 311 314 69 61 302 203 0 0 -15 311 411 0 306 312 0 17 314 0 311 316 30
6 108 181 208 0 31 -17 69 0 311 306 316 65 305 215 0 297 +17 316 0 311 69 314 11
5 31 320 0 0 +17 305 0 301 318 297 115 69 215 0 316 -15 301 413 0 297 317 0 17 3
18 0 301 217 305 116 113 319 0 0 -17 217 0 301 297 318 66 321 214 0 303 +17 113
 0 32 31 118 115 318 319 0 305 +16 319 76 298 ?113 320 325 323 0 0 1 81 1 298 56
4 28 319 0 0 300 262 322 16 320 81 310 ?316 40 319 324 0 0 1 16 325 71 326 ?118
 319 330 327 0 0 1 30 323 78 0 319 327 324 0 +-.1269337567297406 0 .0105 1 0 0 3
0 327 73 0 325 328 323 0 +-.175 .025 .0105 0 -1 0 30 324 83 0 320 323 329 0 +-.0
644337567297406 .025 .0105 -.5 -.866025403784439 0 30 329 88 0 207 324 332 0 +-.
025 .05 .0105 -1 0 0 16 207 86 335 ?48 202 40 329 40 40 1 31 332 384 0 334 329 3
31 0 +-.15 .02 -.0105 0 0 -1 1 0 0 .005 16 334 316 333 ?336 337 339 332 0 0 1 31
 331 383 0 337 332 271 0 +-.1 .02 -.0105 0 0 -1 1 0 0 .005 16 337 312 338 ?340 2
67 334 331 0 0 1 31 271 382 0 267 331 269 0 +.1 .02 -.0105 0 0 1 1 0 0 .005 16 2
67 308 342 ?345 259 337 271 0 0 1 81 1 342 581 28 267 0 0 344 341 343 17 345 0 3
50 345 345 0 346 267 0 0 +15 350 251 0 345 187 348 17 346 0 347 346 346 0 345 26
7 0 0 -15 347 439 0 346 349 0 14 255 349 438 351 ?355 352 353 6 354 +0 0 355 352
 23 81 1 351 1164 356 349 360 0 358 357 359 14 355 442 357 ?19 349 364 6 20 -0 0
 19 349 23 14 352 434 358 ?349 312 365 6 362 +0 0 349 312 23 15 353 437 0 363 34
9 347 51 354 462 0 349 362 20 0 -.1 .02 .0105 0 0 -1 .005 -1 0 0 13 23 163 0 0 0
 0 0 0 10 17 14 17 822 361 ?313 0 32 6 368 +370 370 313 0 23 81 1 361 1150 356 1
7 366 0 0 369 367 14 313 791 369 ?260 17 371 6 375 -187 187 260 17 23 15 32 826
 0 33 17 373 50 255 368 3 0 370 372 375 0 +0 -.04255663603544235 .0105 0 0 1 1 0
 0 14 370 1 374 ?187 178 43 6 368 +17 17 187 178 23 81 1 374 1168 356 370 376 0
 380 378 377 14 187 229 378 ?169 370 350 6 375 -313 313 169 370 23 14 178 410 38
0 ?370 19 379 6 381 +0 0 370 19 23 15 43 821 0 39 370 385 15 385 8 0 382 370 383
 17 382 0 385 382 382 0 363 384 0 0 -15 383 9 0 387 370 0 17 387 0 383 387 387 0
 390 389 0 0 -17 390 0 365 390 390 0 387 389 0 0 +16 389 26 344 ?390 386 384 388
 0 0 1 81 1 344 580 28 389 0 0 270 342 391 16 386 31 265 ?253 252 389 392 0 0 1
 16 384 21 341 ?363 389 198 394 0 0 1 31 388 28 0 389 394 392 0 +.15 .02 .0105 0
 0 1 1 0 0 .005 31 394 23 0 384 393 388 0 +.1 .02 .0105 0 0 1 1 0 0 .005 30 392
 33 0 386 388 395 0 +.0644337567297406 .025 .0105 .5 -.866025403784439 0 30 395
 38 0 252 392 397 0 +.1269337567297406 0 .0105 1 0 0 16 252 36 400 ?150 399 386
 395 0 0 1 30 397 43 0 399 395 396 0 +.175 .025 .0105 0 -1 0 16 399 41 261 ?398
 405 252 397 0 0 1 30 396 48 0 405 397 401 0 +.1435090370476246 .05 .0105 1 0 0
 16 405 46 403 ?402 404 399 396 0 0 1 30 401 53 0 404 396 406 0 +.08100903704762
47 .1 .0105 .527050614810579 -.849833895198227 0 16 404 51 410 ?407 408 405 401
 0 0 1 30 406 58 0 409 401 411 0 +0 .15 .0105 1 0 0 16 409 56 192 ?415 413 408 4
06 408 408 1 30 411 63 0 413 406 328 0 +-.0810090370476247 .1 .0105 -.5270506148
10579 -.849833895198227 0 16 413 61 412 ?126 330 409 411 0 0 1 30 328 68 0 330 4
11 327 0 +-.1435090370476246 .05 .0105 -1 0 0 16 330 66 309 ?124 325 413 328 0 0
 1 81 1 309 590 28 330 0 0 293 304 414 17 124 0 32 118 126 120 419 330 0 420 +17
 118 0 32 113 124 116 417 325 0 321 +17 126 0 32 124 418 121 416 413 0 423 +17 4
19 0 425 226 420 121 124 330 0 0 -17 420 0 425 419 76 120 225 218 0 417 -15 425
 417 0 76 421 0 17 76 0 425 420 226 73 424 295 0 225 +17 225 0 422 71 417 73 420
 218 0 315 +17 417 0 422 225 321 120 118 325 0 0 -15 422 415 0 71 426 0 17 321 0
 422 417 71 116 217 214 0 318 -17 71 0 422 321 225 66 315 292 0 217 +17 315 0 30
8 424 303 73 71 292 0 0 -17 424 0 308 430 315 80 76 295 0 0 -17 430 0 308 290 42
4 81 79 289 0 428 -17 290 0 308 25 430 153 428 283 0 0 +17 79 0 427 423 82 80 43
0 289 0 226 +17 428 0 429 131 168 81 290 283 0 0 -15 429 860 0 173 431 0 17 131
 0 429 415 428 128 82 227 0 416 -17 168 0 429 428 173 153 53 171 0 290 -17 173 0
 429 168 234 47 87 284 0 0 -16 171 902 435 ?53 166 433 432 433 433 1 81 1 435 10
82 28 171 0 0 434 436 440 16 433 940 436 ?437 171 438 432 171 171 1 31 432 1024
 0 433 186 439 0 -0 .15 1224646799147352e-33 0 1 0 0 0 1 .02 31 186 1025 0 166 4
42 432 0 +0 .05 1224646799147352e-33 0 -1 0 0 0 -1 .02 30 439 1022 0 50 432 445
 0 -.0170220445305492 .150002 .0105 0 -1 0 16 50 946 444 ?46 339 184 439 0 0 1 3
0 445 1021 0 339 439 196 0 +-.0170220445305492 .150002 .0105 0 -1 0 16 339 943 4
41 ?36 334 50 445 0 0 1 31 196 13 0 195 445 393 0 +-.15 .02 .0105 0 0 -1 1 0 0 .
005 31 393 18 0 198 196 394 0 +-.1 .02 .0105 0 0 -1 1 0 0 .005 16 198 16 443 ?44
6 384 195 393 0 0 1 81 1 443 588 28 198 0 0 338 293 447 17 446 0 373 446 446 0 4
49 198 0 0 +15 373 7 0 446 17 448 17 449 0 364 449 449 0 446 198 0 0 -15 364 441
 0 449 355 450 15 450 443 0 340 355 0 17 340 0 450 340 340 0 452 337 0 0 +17 452
 0 371 452 452 0 340 337 0 0 -15 371 250 0 452 313 455 15 455 249 0 454 313 308
 17 454 0 455 454 454 0 336 334 0 0 -17 336 0 451 336 336 0 454 334 0 0 +15 451
 447 0 336 19 0 14 19 446 453 ?178 355 460 6 7 -0 0 178 355 23 81 1 453 1166 356
 19 456 0 357 380 458 15 460 445 0 457 19 451 17 457 0 460 457 457 0 197 195 0 0
 -17 197 0 448 197 197 0 457 195 0 0 +15 448 6 0 197 17 0 80 7 CCCCCDI12 legal_o
wners0 17 1 lCZ1 356 0 459 8001 0 0 0 0 3 5 0 0 0 FFFFTFTFFFFFFFFFF2 81 1 456 60
6 28 19 0 453 360 461 465 81 1 357 1165 356 355 462 0 351 453 463 81 1 380 1167
 356 178 464 0 453 374 466 83 255 3 458 .647058823529412 .647058823529412 .64705
8823529412 81 1 464 1146 28 178 0 380 470 0 468 83 3 466 .647058823529412 .64705
8823529412 .647058823529412 80 1 28 467 469 9000 0 0 0 0 3 6 0 0 0 FFTFTFTTFFFFF
FFFF1 81 1 470 1145 28 431 0 474 475 464 472 82 255 3 468 13 2 2 14 431 422 474
 ?473 471 478 6 480 +0 0 473 471 23 81 1 474 1157 356 431 470 0 476 479 477 81 1
 475 1144 28 481 0 485 483 470 482 82 3 472 13 1 2 14 481 1120 485 ?0 484 486 6
 490 -0 0 0 484 23 81 1 485 1172 356 481 475 0 488 0 487 81 1 483 1143 28 489 0
 0 491 475 495 82 3 482 13 0 2 16 489 1110 483 ?492 438 0 493 0 0 1 81 1 491 114
2 28 438 0 0 436 483 494 82 3 495 13 1 1 16 438 1107 491 ?497 433 489 442 0 0 1
 81 1 436 1083 28 433 0 0 435 491 500 82 3 494 13 0 1 82 3 500 11 15 1 17 497 0
 486 497 497 0 499 438 0 0 +31 442 1138 0 438 493 186 0 +0 .15 612323399573677e-
33 0 1 0 0 0 1 .01 31 493 1139 0 489 0 442 0 +0 .05 612323399573677e-33 0 -1 0 0
 0 -1 .01 15 486 1123 0 497 481 496 17 499 0 478 499 499 0 497 438 0 0 -15 478 1
095 0 499 431 429 15 496 1124 0 492 481 0 17 492 0 496 492 492 0 498 489 0 0 +17
 498 0 379 498 498 0 492 489 0 0 -15 379 1088 0 498 178 180 81 1 488 1171 356 48
4 501 0 502 485 504 83 3 487 .647058823529412 .647058823529412 .647058823529412
 14 484 1002 488 ?481 169 503 6 372 +169 169 481 169 23 81 1 501 1079 28 484 0 4
88 505 182 507 81 1 502 1170 356 169 505 0 378 488 510 83 3 504 .647058823529412
 .647058823529412 .647058823529412 14 169 985 502 ?484 187 164 6 372 +484 484 48
4 187 23 81 1 505 1078 28 169 0 502 444 501 509 81 1 378 1169 356 187 506 0 374
 502 508 83 3 510 .647058823529412 .647058823529412 .647058823529412 81 1 506 10
63 28 187 0 378 515 366 511 83 3 508 .647058823529412 .647058823529412 .64705882
3529412 81 1 515 1062 28 313 0 369 513 506 512 81 1 366 1064 28 17 0 361 506 376
 514 82 3 511 11 3 2 81 1 376 1065 28 370 0 374 366 52 516 82 3 514 11 4 2 81 1
 52 1066 28 47 0 0 376 154 520 82 3 516 11 5 2 81 1 154 1067 28 153 0 0 52 165 5
17 82 3 520 11 0 0 82 3 517 11 1 0 81 1 369 1151 356 313 515 0 361 518 519 81 1
 513 1061 28 40 0 0 335 515 521 82 3 512 11 2 2 16 40 816 513 ?38 207 320 329 20
7 207 1 81 1 335 1060 28 207 0 0 194 513 525 82 3 521 11 7 1 81 1 194 1059 28 18
3 0 0 191 335 523 82 3 525 11 6 1 82 3 523 11 5 1 17 38 0 180 181 522 108 29 40
 0 314 +17 181 0 180 176 38 61 314 208 0 306 +17 522 0 180 38 48 12 524 184 0 0
 +17 48 0 180 522 107 26 42 207 0 524 +17 524 0 503 46 36 26 522 184 0 0 -16 184
 921 434 ?522 50 166 186 166 166 1 81 1 434 1081 28 184 0 0 182 435 529 81 1 182
 1080 28 166 0 0 501 434 530 82 3 529 11 13 1 82 3 530 11 12 1 15 503 1005 0 437
 484 0 17 46 0 503 437 524 104 39 50 0 527 +17 36 0 503 524 437 12 33 339 0 522
 +17 437 0 503 36 46 37 527 433 0 0 +17 33 0 32 418 29 37 36 339 0 415 -17 418 0
 32 126 33 128 415 409 0 0 -17 415 0 429 527 131 37 418 409 0 437 +17 527 0 429
 134 415 104 437 433 0 0 -17 134 0 429 234 527 135 44 408 0 528 +17 234 0 429 17
3 134 84 528 230 0 526 +17 44 0 43 39 533 104 134 408 0 46 -16 408 806 535 ?134
 409 404 406 409 409 1 17 528 0 531 407 526 135 234 230 0 533 -15 531 423 0 526
 471 0 17 407 0 531 95 528 136 533 404 0 0 +17 526 0 531 528 95 84 282 276 0 0 -
17 533 0 43 44 534 135 407 404 0 0 -17 534 0 43 533 532 136 402 405 0 407 -17 53
2 0 43 534 150 139 398 399 0 402 -17 402 0 536 96 137 139 534 405 0 0 +15 536 42
5 0 540 538 0 17 96 0 536 540 402 91 142 236 0 537 +17 137 0 536 402 540 136 95
 231 0 534 -17 540 0 536 137 96 88 279 274 0 282 -17 95 0 531 526 407 88 137 231
 0 540 +17 279 0 172 255 282 91 540 274 0 0 +17 282 0 172 279 87 88 526 276 0 0
 +17 87 0 172 282 167 84 173 284 0 234 +16 284 784 539 ?87 283 276 278 283 283 1
 81 1 539 1054 28 284 0 0 541 287 545 81 1 541 1051 28 1 0 543 542 539 544 81 1
 287 1055 28 283 0 0 539 535 546 82 3 545 11 0 1 81 1 535 1056 28 408 0 0 287 19
2 550 82 3 546 11 1 1 81 1 192 1057 28 409 0 0 535 191 547 82 3 550 11 2 1 82 3
 547 11 3 1 81 1 543 1147 548 1 541 14 0 0 549 81 1 542 610 28 312 0 552 555 541
 554 82 3 544 6 0 3 14 312 412 552 ?352 317 311 6 551 +0 0 352 317 23 81 1 552 1
162 356 312 542 0 553 358 556 81 1 555 609 28 421 0 557 462 542 559 82 3 554 6 1
7 2 14 421 418 557 ?426 473 425 6 558 -0 0 426 473 23 81 1 557 1159 356 421 555
 0 479 560 562 81 1 462 608 28 355 0 357 461 555 565 82 3 559 6 16 2 81 1 461 60
7 28 473 0 479 456 462 564 82 3 565 6 15 2 14 473 420 479 ?421 431 427 6 561 -0
 0 421 431 23 81 1 479 1158 356 473 461 0 474 557 563 82 3 564 6 14 2 83 3 563 .
647058823529412 .647058823529412 .647058823529412 15 427 419 0 79 473 0 50 561 4
54 0 473 558 480 0 +-.0810090370476247 .1 .0105 .849833895198227 -.5270506148105
79 0 .527050614810579 .849833895198227 0 50 558 453 0 421 570 561 0 +-.143509037
0476246 .05 .0105 0 -1 0 0 0 -1 50 480 455 0 431 561 566 0 +0 .15 .0105 0 1 0 0
 0 1 50 566 456 0 471 480 568 0 +.0810090370476247 .1 .0105 .849833895198227 .52
7050614810579 0 -.527050614810579 .849833895198227 0 14 471 424 476 ?431 538 531
 6 566 +0 0 431 538 23 50 568 457 0 538 566 567 0 +.1435090370476246 .05 .0105 0
 1 0 0 0 1 14 538 426 569 ?471 571 536 6 568 +0 0 471 571 23 50 567 458 0 571 56
8 575 0 +.175 .025 .0105 1 0 0 0 0 -1 14 571 428 572 ?538 247 573 6 567 +0 0 538
 247 23 50 575 459 0 247 567 574 0 +.1269337567297406 0 .0105 0 1 0 0 0 1 14 247
 430 576 ?571 260 246 6 575 -0 0 571 260 23 50 574 460 0 260 575 362 0 +.0644337
567297406 .025 .0105 .866025403784439 .5 0 -.5 .866025403784439 0 14 260 432 518
 ?247 313 251 6 574 -0 0 247 313 23 51 362 461 0 352 574 354 0 -.15 .02 .0105 0
 0 -1 .005 -1 0 0 81 1 518 1152 356 260 580 0 369 576 578 81 1 580 601 28 260 0
 518 577 579 584 81 1 576 1153 356 247 585 0 518 572 582 83 3 578 .6470588235294
12 .647058823529412 .647058823529412 81 1 585 597 28 247 0 576 583 581 588 81 1
 572 1154 356 571 577 0 576 569 590 83 3 582 .647058823529412 .647058823529412 .
647058823529412 81 1 577 599 28 571 0 572 581 580 586 81 1 569 1155 356 538 589
 0 572 476 587 83 3 590 .647058823529412 .647058823529412 .647058823529412 81 1
 589 603 28 538 0 569 579 591 595 81 1 476 1156 356 471 579 0 569 474 593 83 3 5
87 .647058823529412 .647058823529412 .647058823529412 81 1 579 602 28 471 0 476
 580 589 592 83 3 593 .647058823529412 .647058823529412 .647058823529412 82 3 59
2 6 9 2 81 1 591 604 28 352 0 358 589 360 594 82 3 595 6 10 2 81 1 358 1163 356
 352 591 0 552 351 596 81 1 360 605 28 349 0 351 591 456 600 82 3 594 6 11 2 82
 3 600 6 12 2 83 3 596 .647058823529412 .647058823529412 .647058823529412 81 1 5
81 598 28 426 0 560 585 577 598 82 3 586 6 6 2 14 426 416 560 ?317 421 422 6 570
 -0 0 317 421 23 81 1 560 1160 356 426 581 0 557 553 597 82 3 598 6 5 2 81 1 553
 1161 356 317 583 0 560 552 599 83 3 597 .647058823529412 .647058823529412 .6470
58823529412 14 317 414 553 ?312 426 301 6 601 -0 0 312 426 23 81 1 583 596 28 31
7 0 553 310 585 605 83 3 599 .647058823529412 .647058823529412 .647058823529412
 81 1 310 592 28 320 0 0 304 583 602 82 3 605 6 3 2 82 3 602 6 43 1 50 601 451 0
 317 551 570 0 +-.1269337567297406 0 .0105 0 1 0 0 0 1 50 551 450 0 312 381 601
 0 +-.0644337567297406 .025 .0105 .866025403784439 -.5 0 .5 .866025403784439 0 5
0 570 452 0 426 601 558 0 +-.175 .025 .0105 1 0 0 0 0 -1 50 381 449 0 178 375 55
1 0 +-.025 .05 .0105 0 -1 0 0 0 -1 50 375 368 0 187 368 381 0 +0 -.0425566360354
4235 -.0105 0 0 1 1 0 0 82 3 588 6 4 2 82 3 584 6 8 2 15 573 427 0 537 571 0 17
 537 0 573 142 99 91 255 264 0 279 -17 142 0 573 398 537 139 96 236 0 532 -17 99
 0 573 537 398 100 249 239 0 250 +17 255 0 172 102 279 100 537 264 0 0 +17 102 0
 172 190 255 101 250 254 0 243 -17 398 0 573 99 142 143 532 399 0 0 +17 249 0 24
6 147 250 143 99 239 0 398 -83 3 562 .647058823529412 .647058823529412 .64705882
3529412 83 3 556 .647058823529412 .647058823529412 .647058823529412 80 1 548 603
 604 8038 0 0 0 0 0 0 0 0 0 TTTTTTTTTTTTTFTFT10 81 1 14 1148 603 1 543 2 0 0 607
 98 255 6 549 80 97 114 116 32 49 80 1 603 610 609 8017 0 0 0 0 0 0 0 0 0 TTTTTT
TTTTTTTFTFT3 84 255 6 607 Part 179 255 13 609 SDL/TYSA_NAME79 14 604 SDL/TYSA_UN
AME17 150 0 43 532 253 143 147 252 0 249 +17 253 0 43 150 42 58 258 386 0 248 +1
7 42 0 43 253 39 54 48 207 0 0 -17 258 0 251 56 248 54 253 386 0 42 -17 107 0 18
0 48 179 54 56 202 0 258 -83 3 519 .647058823529412 .647058823529412 .6470588235
29412 81 1 444 1077 28 50 0 0 441 505 606 82 3 509 11 6 2 81 1 441 1076 28 339 0
 0 175 444 608 82 3 606 11 11 1 81 1 175 1075 28 27 0 0 24 441 611 82 3 608 11 1
0 1 81 1 24 1074 28 11 0 0 30 175 612 82 3 611 11 9 1 82 3 612 11 8 1 51 372 101
7 0 484 490 368 0 +0 .150002 1224646799147352e-33 0 -1 0 .02 0 0 -1 51 490 1135
 0 481 0 372 0 +0 .583020318849457 612323399573677e-33 0 -1 0 .01 0 0 -1 82 3 50
7 11 7 2 83 3 477 .647058823529412 .647058823529412 .647058823529412 79 9 469 BT
I/DetId83 3 463 .647058823529412 .647058823529412 .647058823529412 82 3 465 6 13
 2 79 15 459 SDL/TYSA_COLOUR81 1 338 587 28 337 0 0 412 443 614 81 1 293 589 28
 295 0 0 443 309 613 82 3 447 6 39 1 82 3 613 6 40 1 81 1 412 586 28 413 0 0 288
 338 615 82 3 614 6 38 1 81 1 288 585 28 289 0 0 200 412 617 82 3 615 6 37 1 81
 1 200 584 28 195 0 0 333 288 620 82 3 617 6 36 1 81 1 333 583 28 334 0 0 341 20
0 619 82 3 620 6 35 1 81 1 341 582 28 384 0 0 342 333 616 82 3 619 6 34 1 82 3 6
16 6 33 1 82 3 440 11 14 1 17 82 0 427 79 416 81 131 227 0 430 +17 416 0 427 82
 423 128 126 413 0 418 -17 423 0 427 416 79 121 226 224 0 419 -17 226 0 425 76 4
19 80 423 224 0 424 +17 25 0 308 63 290 160 156 11 0 176 +17 156 0 164 53 159 15
3 25 11 0 168 -82 3 414 6 41 1 81 1 410 576 28 404 0 0 281 280 618 81 1 281 575
 28 276 0 0 265 410 625 81 1 280 577 28 274 0 0 410 403 621 82 3 618 6 27 1 81 1
 403 578 28 405 0 0 280 270 623 82 3 621 6 28 1 81 1 270 579 28 259 0 0 403 344
 622 82 3 623 6 29 1 82 3 622 6 30 1 81 1 265 574 28 386 0 0 256 281 624 82 3 62
5 6 26 1 82 3 624 6 25 1 81 1 261 570 28 399 0 0 273 256 626 81 1 273 569 28 264
 0 0 326 261 630 82 3 626 6 21 1 81 1 326 568 28 325 0 0 294 273 627 82 3 630 6
 20 1 81 1 294 567 28 292 0 0 400 326 628 82 3 627 6 19 1 81 1 400 566 28 252 0
 0 262 294 629 82 3 628 6 18 1 81 1 262 565 28 254 0 0 298 400 631 82 3 629 6 17
 1 82 3 631 6 16 1 17 363 0 353 363 363 0 382 384 0 0 +82 3 391 6 31 1 15 365 43
3 0 390 352 635 15 635 435 0 633 352 0 17 633 0 635 633 633 0 268 259 0 0 -17 26
8 0 348 268 268 0 633 259 0 0 +15 348 252 0 268 187 172 83 3 377 .64705882352941
2 .647058823529412 .647058823529412 83 3 367 .647058823529412 .647058823529412 .
647058823529412 51 20 463 0 355 354 7 0 +-.1 .02 .0105 0 0 -1 .005 -1 0 0 83 3 3
59 .647058823529412 .647058823529412 .647058823529412 82 3 343 6 32 1 82 3 322 6
 15 1 17 31 0 32 29 113 108 316 320 0 0 -82 3 307 6 42 1 81 1 212 560 28 215 0 0
 222 300 632 82 3 299 6 14 1 81 1 222 559 28 218 0 0 223 212 634 82 3 632 6 11 1
 81 1 223 558 28 224 0 0 228 222 639 82 3 634 6 10 1 81 1 228 557 28 227 0 0 211
 223 640 82 3 639 6 9 1 81 1 211 556 28 208 0 0 237 228 637 82 3 640 6 8 1 81 1
 237 555 28 236 0 0 240 211 638 82 3 637 6 7 1 81 1 240 554 28 231 0 0 235 237 6
36 82 3 638 6 6 1 81 1 235 553 28 230 0 0 242 240 643 82 3 636 6 5 1 82 3 643 6
 4 1 82 3 263 6 24 1 81 1 210 551 28 202 0 0 245 242 645 82 3 244 6 3 1 81 1 245
 550 28 239 0 0 220 210 641 82 3 645 6 2 1 81 1 220 549 28 214 0 0 111 245 644 8
2 3 641 6 1 1 81 1 111 548 28 115 0 0 70 220 642 82 3 644 6 0 1 81 1 70 547 28 6
5 0 0 125 111 646 82 3 642 6 23 0 81 1 125 546 28 120 0 0 74 70 650 82 3 646 6 2
2 0 81 1 74 545 28 73 0 0 130 125 648 82 3 650 6 21 0 81 1 130 544 28 121 0 0 78
 74 647 82 3 648 6 20 0 81 1 78 543 28 80 0 0 129 130 649 82 3 647 6 19 0 81 1 1
29 542 28 128 0 0 83 78 651 82 3 649 6 18 0 81 1 83 541 28 81 0 0 112 129 655 82
 3 651 6 17 0 81 1 112 540 28 108 0 0 64 83 653 82 3 655 6 16 0 81 1 64 539 28 6
1 0 0 145 112 652 82 3 653 6 15 0 81 1 145 538 28 139 0 0 92 64 654 82 3 652 6 1
4 0 81 1 92 537 28 91 0 0 138 145 656 82 3 654 6 13 0 81 1 138 536 28 136 0 0 93
 92 660 82 3 656 6 12 0 81 1 93 535 28 88 0 0 133 138 657 82 3 660 6 11 0 81 1 1
33 534 28 135 0 0 90 93 658 82 3 657 6 10 0 81 1 90 533 28 84 0 0 149 133 659 82
 3 658 6 9 0 81 1 149 532 28 58 0 0 103 90 662 82 3 659 6 8 0 81 1 103 531 28 10
1 0 0 110 149 665 82 3 662 6 7 0 81 1 110 530 28 54 0 0 59 103 664 82 3 665 6 6
 0 81 1 59 529 28 57 0 0 148 110 661 82 3 664 6 5 0 81 1 148 528 28 143 0 0 97 5
9 663 82 3 661 6 4 0 81 1 97 527 28 100 0 0 119 148 666 82 3 663 6 3 0 81 1 119
 526 28 116 0 0 75 97 667 82 3 666 6 2 0 81 1 75 525 28 66 0 0 0 119 669 82 3 66
7 6 1 0 82 3 669 6 0 0 82 3 199 11 4 1 81 1 157 1069 28 160 0 0 165 155 668 82 3
 163 11 2 0 81 1 155 1070 28 104 0 0 157 41 670 82 3 668 11 3 0 81 1 41 1071 28
 37 0 0 155 34 672 82 3 670 11 4 0 82 3 672 11 5 0 82 3 45 11 6 0 82 3 35 11 7 0
 19 18 478 0 1 0 10 6 0 S0 74 4 CI16 index_map_offset0 0 1 dCCZ20 16 5 0 0 464 5
43 14 2 485 0 0 0 0 0 0 0 0 0 0 0 0 0 0 0 80 1 13 356 675 8040 0 0 0 0 3 5 0 0 0
 TTTFFFFFFFFFFFFFF2 83 3 15 .647058823529412 .647058823529412 .647058823529412 7
9 17 675 SDL/TYSA_COLOUR_21 0 
