**ABCDEFGHIJKLMNOPQRSTUVWXYZabcdefghijklmnopqrstuvwxyz**************************
**PARASOLID !"#$%&'()*+,-./:;<=>?@[\]^_`{|}~0123456789**************************
**PART1;
MC=unknown;
MC_MODEL=unknown;
MC_ID=unknown;
OS=unknown;
OS_RELEASE=unknown;
FRU=Parasolid 37.1.212;
APPL=Onshape;
SITE=unknown;
USER=unknown;
FORMAT=text;
GUISE=transmit;
KEY=BTGapi::writeModels_.xmt;
FILE=BTGapi::writeModels_.xmt;
DATE=2026-04-21T02:48:53 (UTC);
**PART2;
SCH=SCH_3701212_37102;
USFLD_SIZE=0;
**PART3;
**END_OF_HEADER*****************************************************************
T51 : TRANSMIT FILE created by modeller version 370121223 SCH_3701212_37102_1300
6239 0 12 36 CCCI7 lattice222 0 CCCI4 mesh1006 0 I8 polyline1008 0 CCCCCCCDI5 ow
ner1040 0 CCCI16 boundary_lattice222 0 CCCI13 boundary_mesh1006 0 I17 boundary_p
olyline1008 0 CCCA16 index_map_offset0 0 1 dA9 index_map82 0 A17 node_id_index_m
ap82 0 A20 schema_embedding_map82 0 A5 child12 0 A14 lowest_node_id0 0 1 dA16 me
sh_offset_data206 0 Z1 629 2 3 0 0 0 0 0 0 0 1e3 1e-8 0 4 0 1 0 1 2 5 0 6 7 8 0
 0 9 10 11 0 0 0 0 0 0 0 81 255 1 2 617 12 1 13 0 0 0 14 70 11 CI9 list_type0 0
 1 uI10 notransmit0 0 1 lCCCDCCDI12 finger_index0 0 1 dI12 finger_block1012 0 CZ
3 0 4 T1 0 0 5 20 1 15 15 13 255 5 209 0 1 0 16 0 0 17 0 51 255 6 204 0 18 19 0
 0 --.1 -.05 .0265 925185853854297e-31 0 -1 .005 -1 0 -925185853854297e-31 31 25
5 7 293 0 10 20 0 0 +-.1 -.05 .0215 -925185853854297e-31 0 1 1 0 925185853854297
e-31 .01 29 255 8 175 0 21 22 0 -.03233077342911335 -.00124422315973206 .0215 19
 9 CCCCCCI5 frame230 0 CA5 owner12 0 Z9 78 0 1 17 0 23 0 V0 16 255 10 291 24 ?25
 0 27 7 0 0 1 18 255 11 67 30 29 0 26 28 ?1 81 1 30 600 34 11 0 0 35 24 32 17 25
5 29 0 33 31 38 11 40 36 0 39 +18 26 57 37 41 11 21 45 ?1 29 28 69 0 11 45 22 -.
02266922657088665 -.01875577684026795 .0265 29 45 59 0 26 43 28 -.09516922657088
67 -.058755776840268 .0265 29 22 177 0 42 28 8 -.1048307734291134 -.041244223159
7321 .0215 18 42 160 44 25 21 46 22 ?1 81 1 44 595 34 42 0 0 37 50 48 17 25 0 47
 49 51 42 55 10 0 52 +18 21 152 53 54 26 42 8 ?1 18 46 381 50 57 42 60 43 ?1 81
 1 50 596 34 46 0 0 44 53 59 17 57 0 56 41 40 46 58 61 0 62 -18 60 379 64 55 46
 63 65 ?1 29 43 536 0 46 65 45 -.1048307734291134 -.0412442231597321 .0265 29 65
 538 0 60 67 43 -.0951692265708867 -.058755776840268 .0215 29 67 539 0 63 70 65
 -.03233077342911335 -.00124422315973206 .0265 18 63 462 69 40 60 66 67 ?1 29 70
 542 0 66 0 67 -.02266922657088665 -.01875577684026795 .0215 18 66 464 35 68 63
 0 70 ?1 81 1 35 599 34 66 0 0 69 30 75 17 68 0 71 73 72 66 51 74 0 31 +15 255 7
1 191 0 68 76 0 17 73 0 71 80 68 11 31 77 0 0 -17 72 0 71 68 80 60 78 79 0 51 +1
7 51 0 47 25 82 60 68 74 0 0 -16 74 140 85 ?68 84 81 83 0 0 1 17 31 0 33 89 29 6
6 73 77 0 82 +15 33 187 0 31 90 87 17 89 0 33 38 31 21 82 27 0 0 -16 77 180 88 ?
31 79 86 93 0 0 1 17 82 0 47 51 49 66 89 27 0 0 +15 47 126 0 51 95 0 17 49 0 47
 82 25 21 91 84 0 89 +16 27 285 94 ?82 10 79 20 0 0 1 81 1 94 602 34 27 0 0 24 9
2 96 16 79 182 100 ?72 27 77 98 0 0 1 31 20 287 0 27 98 7 0 +-.0275 -.01 .0215 -
925185853854297e-31 0 1 1 0 925185853854297e-31 .01 30 255 98 208 0 79 97 20 0 +
-.0951692265708867 -.058755776840268 .0265 925185853854297e-31 0 -1 30 97 207 0
 99 93 98 0 +-.1048307734291134 -.0412442231597321 .0265 925185853854297e-31 0 -
1 16 99 181 101 ?52 86 61 97 0 0 1 30 93 206 0 77 105 97 0 +-.02266922657088665
 -.01875577684026795 .0265 925185853854297e-31 0 -1 30 105 205 0 86 103 93 0 +-.
03233077342911335 -.00124422315973206 .0265 925185853854297e-31 0 -1 16 86 179 1
02 ?54 77 99 105 0 0 1 30 103 171 0 84 83 105 0 +-.0685807734291134 -.0212442231
5973205 .0215 .875577684026794 .483077342911335 810072087212098e-31 16 84 136 10
4 ?49 106 74 103 0 0 1 30 83 172 0 74 110 103 0 +-.0589192265708867 -.0387557768
4026795 .0215 .875577684026794 .483077342911335 810072087212098e-31 30 110 44 0
 61 107 83 0 +-.0685807734291134 -.02124422315973205 .0265 .875577684026794 .483
077342911335 810072087212098e-31 16 61 42 108 ?58 99 106 110 0 0 1 30 107 34 0 1
06 109 110 0 +-.0589192265708867 -.03875577684026795 .0265 .875577684026794 .483
077342911335 810072087212098e-31 16 106 32 112 ?39 61 84 107 0 0 1 31 109 523 0
 81 115 107 0 +-.1 -.05 .0265 -925185853854297e-31 0 1 1 0 925185853854297e-31 .
01 16 81 366 92 ?114 74 36 109 0 0 1 31 115 524 0 36 111 109 0 +-.0275 -.01 .026
5 -925185853854297e-31 0 1 1 0 925185853854297e-31 .01 16 36 444 113 ?29 81 116
 115 0 0 1 31 111 527 0 117 119 115 0 +-.0275 -.01 .0195 -925185853854297e-31 0
 1 1 0 925185853854297e-31 .005 16 117 459 118 ?120 122 125 111 0 0 1 31 119 528
 0 125 124 111 0 +-.0275 -.01 .0195 925185853854297e-31 0 -1 1 0 925185853854297
e-31 .01 16 125 456 121 ?123 117 0 119 0 0 1 31 124 529 0 130 126 119 0 +-.0275
 -.01 .0285 -925185853854297e-31 0 1 1 0 925185853854297e-31 .005 16 130 453 128
 ?127 129 122 124 0 0 1 31 126 530 0 122 131 124 0 +-.0275 -.01 .0285 9251858538
54297e-31 0 -1 1 0 925185853854297e-31 .01 16 122 447 135 ?132 130 117 126 0 0 1
 31 131 531 0 133 134 126 0 +-.1 -.05 .0195 -925185853854297e-31 0 1 1 0 9251858
53854297e-31 .005 16 133 372 137 ?140 139 129 131 0 0 1 31 134 532 0 129 136 131
 0 +-.1 -.05 .0195 925185853854297e-31 0 -1 1 0 925185853854297e-31 .01 16 129 3
75 138 ?144 133 130 134 0 0 1 31 136 533 0 116 145 134 0 +-.1 -.05 .0285 -925185
853854297e-31 0 1 1 0 925185853854297e-31 .005 16 116 363 142 ?143 36 139 136 0
 0 1 31 145 534 0 139 0 136 0 +-.1 -.05 .0285 925185853854297e-31 0 -1 1 0 92518
5853854297e-31 .01 16 139 369 141 ?148 116 133 145 0 0 1 81 1 141 371 34 139 0 0
 142 137 150 17 148 0 146 148 148 0 149 139 0 0 +15 146 414 0 148 16 0 17 149 0
 147 149 149 0 148 139 0 0 -15 147 419 0 149 151 0 14 255 151 415 155 ?0 153 152
 5 154 +0 0 0 153 23 81 1 155 629 156 151 160 0 158 0 157 14 153 499 158 ?151 18
 159 5 161 +0 0 151 18 23 15 152 418 0 165 151 147 50 255 154 520 0 151 0 162 0
 +-.06375 -.03 .0285 -925185853854297e-31 0 1 1 0 925185853854297e-31 13 23 79 0
 0 0 0 0 0 9 16 14 16 194 163 ?76 0 164 5 19 +0 0 76 0 23 81 1 163 618 156 16 16
7 0 0 170 169 14 76 192 170 ?90 16 71 5 166 -0 0 90 16 23 15 164 193 0 52 16 168
 51 19 203 0 16 166 6 0 +-.1 -.05 .0265 925185853854297e-31 0 -1 .01 -1 0 -92518
5853854297e-31 50 166 202 0 76 171 19 0 +-.0589192265708867 -.03875577684026795
 .0265 -.483077342911335 .875577684026794 -4469363239790885e-32 -.87557768402679
4 -.483077342911335 0 50 171 201 0 172 174 166 0 +-.0685807734291134 -.021244223
15973205 .0265 -.483077342911335 .875577684026794 -4469363239790885e-32 -.875577
684026794 -.483077342911335 0 14 172 190 173 ?175 90 177 5 171 +0 0 175 90 23 51
 174 200 0 90 180 171 0 +-.0275 -.01 .0265 925185853854297e-31 0 -1 .01 -1 0 -92
5185853854297e-31 14 90 188 179 ?172 76 33 5 174 +0 0 172 76 23 51 180 199 0 176
 178 174 0 --.0275 -.01 .0265 925185853854297e-31 0 -1 .005 -1 0 -92518585385429
7e-31 14 176 184 185 ?181 183 182 5 180 +0 0 181 183 23 50 178 168 0 95 184 180
 0 +-.06375 -.03 .0215 -925185853854297e-31 0 1 1 0 925185853854297e-31 14 95 11
4 186 ?183 175 47 5 178 -0 0 183 175 23 50 184 3 0 175 190 178 0 +-.06375 -.03 .
0265 -925185853854297e-31 0 1 1 0 925185853854297e-31 14 175 1 187 ?95 172 56 5
 184 +0 0 95 172 23 50 190 515 0 183 161 184 0 +-.06375 -.03 .0195 -925185853854
297e-31 0 1 1 0 925185853854297e-31 14 183 504 188 ?176 95 189 5 190 -0 0 176 95
 23 50 161 516 0 153 162 190 0 +-.06375 -.03 .0285 -925185853854297e-31 0 1 1 0
 925185853854297e-31 50 162 519 0 181 154 161 0 +-.06375 -.03 .0195 -92518585385
4297e-31 0 1 1 0 925185853854297e-31 14 181 420 192 ?18 176 195 5 162 -0 0 18 17
6 23 81 1 192 626 156 181 194 0 185 191 193 14 18 196 191 ?153 181 199 5 6 +0 0
 153 181 23 15 195 423 0 140 181 200 17 140 0 195 140 140 0 197 133 0 0 +15 200
 424 0 144 181 0 17 144 0 200 144 144 0 198 129 0 0 +17 198 0 168 198 198 0 144
 129 0 0 -15 168 403 0 198 16 146 17 197 0 199 197 197 0 140 133 0 0 -15 199 390
 0 197 18 196 15 196 409 0 143 18 0 17 143 0 196 143 143 0 165 116 0 0 +17 165 0
 152 165 165 0 143 116 0 0 -81 1 191 627 156 18 203 0 192 158 205 80 7 CCCCCDI12
 legal_owners0 17 1 lCZ1 156 0 201 8001 0 0 0 0 3 5 0 0 0 FFFFTFTFFFFFFFFFF2 81
 1 203 609 34 18 0 191 88 204 202 81 1 158 628 156 153 206 0 191 155 210 83 255
 3 205 1 0 0 81 1 206 501 34 153 0 158 118 208 207 83 3 210 1 0 0 80 1 34 209 21
1 9000 0 0 0 0 3 6 0 0 0 FFTFTFTTFFFFFFFFF1 81 1 118 461 34 117 0 0 121 206 215
 81 1 208 506 34 183 0 188 206 213 212 82 255 3 207 33 6 2 81 1 188 624 156 183
 208 0 186 185 214 81 1 213 592 34 1 0 216 208 64 220 82 3 212 33 5 2 81 1 216 6
15 217 1 213 13 0 0 218 81 1 64 593 34 60 0 0 213 37 219 82 3 220 32 0 3 81 1 37
 594 34 26 0 0 64 44 222 82 3 219 34 0 0 82 3 222 34 1 0 80 1 217 225 224 8038 0
 0 0 0 0 0 0 0 0 TTTTTTTTTTTTTFTFT10 81 1 13 616 225 1 216 2 0 0 221 98 255 6 21
8 80 97 114 116 32 53 80 1 225 223 226 8017 0 0 0 0 0 0 0 0 0 TTTTTTTTTTTTTFTFT3
 84 255 6 221 Part 579 255 13 226 SDL/TYSA_NAME79 14 224 SDL/TYSA_UNAME81 1 186
 623 156 95 227 0 187 188 229 81 1 185 625 156 176 204 0 188 192 228 83 3 214 1
 0 0 81 1 204 610 34 176 0 185 203 167 230 83 3 228 1 0 0 81 1 167 611 34 16 0 1
63 204 232 235 82 3 230 34 1 2 81 1 232 612 34 90 0 179 167 227 234 82 3 235 34
 2 2 81 1 179 620 156 90 232 0 170 173 231 81 1 227 613 34 95 0 186 232 233 240
 82 3 234 34 3 2 81 1 233 614 34 175 0 187 227 0 236 82 3 240 34 4 2 81 1 187 62
2 156 175 233 0 173 186 238 82 3 236 34 5 2 81 1 173 621 156 172 237 0 179 187 2
39 83 3 238 1 0 0 81 1 237 258 34 172 0 173 112 241 245 83 3 239 1 0 0 81 1 112
 251 34 106 0 0 85 237 242 81 1 241 259 34 76 0 170 237 142 243 82 3 245 32 6 2
 81 1 170 619 156 76 241 0 163 179 244 81 1 142 365 34 116 0 0 241 141 247 82 3
 243 32 7 2 82 3 247 33 1 1 83 3 244 1 0 0 81 1 85 250 34 74 0 0 108 112 250 82
 3 242 32 15 1 81 1 108 249 34 61 0 0 104 85 249 82 3 250 32 14 1 81 1 104 248 3
4 84 0 0 0 108 246 82 3 249 32 13 1 82 3 246 32 12 1 83 3 231 1 0 0 83 3 229 1 0
 0 81 1 121 458 34 125 0 0 128 118 248 82 3 215 33 4 1 81 1 128 455 34 130 0 0 1
35 121 254 82 3 248 33 6 1 81 1 135 449 34 122 0 0 194 128 255 82 3 254 33 5 1 8
1 1 194 422 34 181 0 192 160 135 252 82 3 255 33 7 1 81 1 160 417 34 151 0 155 1
38 194 253 82 3 252 33 1 2 81 1 138 377 34 129 0 0 137 160 251 82 3 253 33 2 2 8
1 1 137 374 34 133 0 0 141 138 258 82 3 251 33 2 1 82 3 258 33 0 1 79 9 211 BTI/
DetId81 1 88 608 34 77 0 0 102 203 260 82 3 202 34 0 2 81 1 102 607 34 86 0 0 10
0 88 256 82 3 260 34 7 1 81 1 100 606 34 79 0 0 101 102 259 82 3 256 34 6 1 81 1
 101 605 34 99 0 0 113 100 257 82 3 259 34 5 1 81 1 113 604 34 36 0 0 92 101 261
 82 3 257 34 4 1 81 1 92 603 34 81 0 0 94 113 265 82 3 261 34 3 1 82 3 265 34 2
 1 79 15 201 SDL/TYSA_COLOUR83 3 193 1 0 0 15 189 507 0 123 183 263 17 123 0 189
 123 123 0 262 125 0 0 +15 263 508 0 120 183 0 17 120 0 263 120 120 0 264 117 0
 0 +17 264 0 182 264 264 0 120 117 0 0 -15 182 487 0 264 176 266 15 266 498 0 12
7 176 0 17 127 0 266 127 127 0 270 130 0 0 +17 270 0 268 270 270 0 127 130 0 0 -
15 268 503 0 270 153 0 17 262 0 87 262 262 0 123 125 0 0 -15 87 477 0 262 90 267
 15 267 493 0 132 90 0 17 132 0 267 132 132 0 269 122 0 0 +17 269 0 159 269 269
 0 132 122 0 0 -15 159 502 0 269 153 268 15 56 303 0 41 175 0 17 41 0 56 39 57 2
6 114 81 0 78 -17 39 0 56 40 41 11 80 106 0 73 +17 114 0 164 52 78 46 41 81 0 0
 +17 78 0 164 114 55 26 72 79 0 80 -17 55 0 164 78 52 60 25 10 0 72 -17 80 0 71
 72 73 26 39 106 0 0 -17 52 0 164 55 114 42 62 99 0 91 +17 62 0 177 58 91 46 52
 99 0 114 -17 91 0 177 62 54 42 49 84 0 0 -15 177 189 0 91 172 0 17 54 0 177 91
 58 21 38 86 0 49 +17 58 0 177 54 62 63 57 61 0 0 +17 38 0 33 29 89 63 54 86 0 5
8 -17 40 0 56 57 39 63 29 36 0 38 -83 3 169 1 0 0 83 3 157 1 0 0 82 3 150 33 3 1
 81 1 24 601 34 10 0 0 30 94 271 82 3 96 34 1 1 82 3 271 34 0 1 81 1 69 598 34 6
3 0 0 53 35 275 82 3 75 34 6 0 81 1 53 597 34 21 0 0 50 69 272 82 3 275 34 5 0 8
2 3 272 34 4 0 82 3 59 34 3 0 82 3 48 34 2 0 82 3 32 34 7 0 19 17 210 0 1 0 9 5
 0 S0 74 4 CI16 index_map_offset0 0 1 dCCZ20 15 5 0 0 233 216 13 2 155 0 0 0 0 0
 0 0 0 0 0 0 0 0 0 0 80 1 12 156 273 8040 0 0 0 0 3 5 0 0 0 TTTFFFFFFFFFFFFFF2 8
3 3 14 1 0 0 79 17 273 SDL/TYSA_COLOUR_21 0 
