**ABCDEFGHIJKLMNOPQRSTUVWXYZabcdefghijklmnopqrstuvwxyz**************************
**PARASOLID !"#$%&'()*+,-./:;<=>?@[\]^_`{|}~0123456789**************************
**PART1;
MC=unknown;
MC_MODEL=unknown;
MC_ID=unknown;
OS=unknown;
OS_RELEASE=unknown;
FRU=Parasolid 37.1.212;
APPL=Onshape;
SITE=unknown;
USER=unknown;
FORMAT=text;
GUISE=transmit;
KEY=BTGapi::writeModels_.xmt;
FILE=BTGapi::writeModels_.xmt;
DATE=2026-04-21T02:46:51 (UTC);
**PART2;
SCH=SCH_3701212_37102;
USFLD_SIZE=0;
**PART3;
**END_OF_HEADER*****************************************************************
T51 : TRANSMIT FILE created by modeller version 370121223 SCH_3701212_37102_1300
6239 0 12 36 CCCI7 lattice222 0 CCCI4 mesh1006 0 I8 polyline1008 0 CCCCCCCDI5 ow
ner1040 0 CCCI16 boundary_lattice222 0 CCCI13 boundary_mesh1006 0 I17 boundary_p
olyline1008 0 CCCA16 index_map_offset0 0 1 dA9 index_map82 0 A17 node_id_index_m
ap82 0 A20 schema_embedding_map82 0 A5 child12 0 A14 lowest_node_id0 0 1 dA16 me
sh_offset_data206 0 Z1 444 2 3 0 0 0 0 0 0 0 1e3 1e-8 0 4 5 1 0 1 2 6 0 7 8 9 0
 0 10 11 12 0 0 0 0 0 0 0 81 255 1 2 434 13 1 14 0 0 0 15 70 11 CI9 list_type0 0
 1 uI10 notransmit0 0 1 lCCCDCCDI12 finger_index0 0 1 dI12 finger_block1012 0 CZ
3 0 4 T1 0 0 5 20 1 16 16 13 255 6 203 0 1 0 17 0 0 18 0 50 255 7 198 0 17 19 0
 0 +-3469446951953615e-33 -.02 -.0195 1387778780781446e-31 0 -1 -1 0 -1387778780
781446e-31 30 255 8 202 0 11 20 0 0 +.0375 -.02 -.0195 0 1 0 29 255 9 179 0 21 2
2 0 -.0375 0 -.0195 19 9 CCCCCCI5 frame230 0 CA5 owner12 0 Z10 103 0 1 18 0 23 0
 V0 16 255 11 186 24 ?25 0 27 8 0 0 1 18 255 12 97 30 29 0 26 28 ?1 81 1 30 221
 34 12 0 0 35 32 33 17 255 29 0 31 38 40 12 36 39 0 37 -18 26 92 41 45 12 43 42
 ?1 29 28 99 0 12 42 44 -.0375 -.02 -.0195 29 42 94 0 26 46 28 -.0375 -.02 .0195
 29 44 182 0 50 28 48 .0375 0 -.0195 18 50 170 47 25 49 0 44 ?1 29 48 181 0 49 4
4 22 .0375 0 .0195 18 49 166 32 51 55 50 48 ?1 29 22 180 0 55 48 9 -.0375 0 .019
5 18 55 162 52 53 21 49 22 ?1 81 1 52 224 34 55 0 0 54 41 57 17 53 0 31 40 38 55
 60 59 0 56 +18 21 158 35 36 58 55 9 ?1 81 1 35 220 34 21 0 0 61 30 62 17 36 0 6
4 63 37 21 29 39 0 65 +18 58 82 61 66 43 21 70 ?1 81 1 61 219 34 58 0 0 47 35 68
 17 66 0 64 37 63 58 25 11 0 67 -18 43 87 54 69 26 58 46 ?1 29 70 84 0 58 0 46 .
0375 -.02 -.0195 29 46 89 0 43 70 42 .0375 -.02 .0195 81 1 54 223 34 43 0 0 32 5
2 75 17 69 0 71 45 73 43 67 72 0 74 +15 255 71 12 0 73 76 0 17 45 0 71 80 69 26
 77 78 0 60 +17 73 0 71 69 80 58 37 79 0 0 -17 67 0 81 25 74 58 69 72 0 73 -16 7
2 47 85 ?69 78 79 83 0 0 1 17 74 0 81 67 51 43 82 27 0 77 -15 81 191 0 51 84 0 1
7 51 0 81 74 25 49 89 90 0 82 +17 82 0 87 56 77 49 74 27 0 88 +16 27 185 86 ?82
 11 59 20 0 0 1 17 77 0 87 82 60 43 45 78 0 0 -15 87 189 0 56 93 0 17 60 0 87 77
 56 26 53 59 0 38 -16 78 52 95 ?45 91 72 94 0 0 1 81 1 95 233 34 78 0 0 92 96 10
0 16 91 57 98 ?38 39 78 97 0 0 1 30 94 54 0 78 83 97 0 +0 -.02 .0195 -1 0 -92518
5853854297e-31 30 83 49 0 72 99 94 0 +.0375 -.02 3469446951953615e-33 0 0 1 30 9
7 59 0 91 94 101 0 +-.0375 -.02 -3469446951953615e-33 0 0 1 30 101 178 0 105 97
 103 0 +-3469446951953615e-33 0 -.0195 -1 0 -1387778780781446e-31 16 105 154 102
 ?65 90 104 101 0 0 1 30 103 177 0 90 101 106 0 +.0375 0 3469446951953615e-33 0
 0 1 16 90 150 96 ?51 110 105 103 0 0 1 30 106 176 0 110 103 107 0 +0 0 .0195 -1
 0 -925185853854297e-31 16 110 146 92 ?56 108 90 106 0 0 1 30 107 175 0 108 106
 109 0 +-.0375 0 -3469446951953615e-33 0 0 1 16 108 142 112 ?115 79 110 107 0 0
 1 30 109 199 0 39 107 114 0 +-.0375 -.02 -.0195 0 1 0 16 39 183 111 ?36 59 91 1
09 0 0 1 30 114 200 0 59 109 20 0 +-.0375 -.02 .0195 0 1 0 16 59 184 113 ?53 27
 39 114 0 0 1 30 20 201 0 27 114 8 0 +.0375 -.02 .0195 0 1 0 81 1 113 229 34 59
 0 0 86 102 116 80 7 CCCCCDI12 legal_owners0 17 1 lCZ1 34 117 119 9000 0 0 0 0 3
 6 0 0 0 FFTFTFTTFFFFFFFFF1 81 1 86 228 34 27 0 0 111 113 118 81 1 102 230 34 10
5 0 0 113 120 121 82 255 3 116 22 3 1 81 1 120 231 34 79 0 0 102 92 125 82 3 121
 22 4 1 16 79 42 120 ?37 72 108 99 0 0 1 81 1 92 232 34 110 0 0 120 95 123 82 3
 125 22 5 1 82 3 123 22 6 1 17 37 0 64 36 66 12 73 79 0 80 +30 99 44 0 79 122 83
 0 +-3469446951953615e-33 -.02 -.0195 -1 0 -1387778780781446e-31 31 255 122 282
 0 124 130 99 0 +0 0 1224646799147352e-33 0 -1 0 0 0 -1 .01 16 124 259 126 ?128
 104 127 122 0 0 1 31 130 283 0 104 129 122 0 +0 .18 1224646799147352e-33 0 -1 0
 0 0 -1 .01 16 104 256 131 ?135 105 124 130 0 0 1 31 129 415 0 127 132 130 0 +-.
0275 -.01 -.0195 1387778780781446e-31 0 -1 -1 0 -1387778780781446e-31 .005 16 12
7 349 133 ?134 124 136 129 0 0 1 31 132 416 0 136 140 129 0 +.0275 -.01 -.0195 1
387778780781446e-31 0 -1 -1 0 -1387778780781446e-31 .005 16 136 379 138 ?137 127
 139 132 0 0 1 31 140 417 0 144 145 132 0 +.0275 -.01 .0195 -925185853854297e-31
 0 1 1 0 925185853854297e-31 .005 16 144 382 142 ?143 139 0 140 0 0 1 31 145 419
 0 139 0 140 0 +-.0275 -.01 .0195 -925185853854297e-31 0 1 1 0 925185853854297e-
31 .005 16 139 352 141 ?148 136 144 145 0 0 1 81 1 141 427 34 139 0 0 142 150 14
6 17 148 0 149 148 148 0 147 139 0 0 +15 149 366 0 148 151 0 17 147 0 155 147 14
7 0 148 139 0 0 -15 155 319 0 147 93 153 14 255 93 190 152 ?154 84 155 6 156 -0
 0 154 84 23 15 153 312 0 160 93 87 17 160 0 153 160 160 0 143 144 0 0 -17 143 0
 158 143 143 0 160 144 0 0 +15 158 396 0 143 157 0 14 157 392 159 ?151 161 165 6
 162 -0 0 151 161 23 81 1 159 443 163 157 150 0 164 167 170 14 151 362 167 ?0 15
7 169 6 166 -0 0 0 157 23 14 161 269 164 ?157 168 171 6 172 -0 0 157 168 23 15 1
65 395 0 137 157 158 51 255 162 409 0 157 166 172 0 +.0275 -.01 -.53638768438749
2 -925185853854297e-31 0 1 .005 1 0 925185853854297e-31 13 23 104 0 0 0 0 0 0 10
 17 14 17 194 174 ?84 0 173 6 7 +0 0 84 0 23 81 1 174 435 163 17 175 0 0 176 180
 14 84 192 176 ?93 17 81 6 19 -0 0 93 17 23 15 173 333 0 178 17 177 17 178 0 173
 178 178 0 134 127 0 0 -15 177 327 0 179 17 64 17 179 0 177 179 179 0 137 136 0
 0 -15 64 193 0 63 17 0 17 63 0 64 66 36 50 65 105 0 0 -17 65 0 185 115 89 21 63
 105 0 40 +15 185 141 0 65 181 0 17 115 0 185 88 65 55 40 108 0 0 +17 89 0 185 6
5 88 50 51 90 0 63 -17 40 0 31 29 53 21 115 108 0 0 -15 31 187 0 40 154 0 14 154
 188 183 ?76 93 31 6 182 +0 0 76 93 23 81 1 183 438 163 154 184 0 152 186 190 14
 76 1 186 ?181 154 71 6 187 +0 0 181 154 23 50 182 195 0 154 188 156 0 +-.0375 -
.02 -3469446951953615e-33 -1 0 0 0 0 1 50 188 174 0 181 187 182 0 +0 0 -34694469
51953615e-33 0 -1 0 1 0 0 50 156 196 0 93 182 19 0 +0 -.02 .0195 925185853854297
e-31 0 -1 -1 0 -925185853854297e-31 50 19 197 0 84 156 7 0 +.0375 -.02 346944695
1953615e-33 -1 0 0 0 0 1 14 181 132 189 ?168 76 191 6 188 -0 0 168 76 23 50 187
 3 0 76 195 188 0 +0 -.02 -3469446951953615e-33 0 -1 0 1 0 0 51 195 279 0 168 17
2 187 0 +0 .18 1224646799147352e-33 0 -1 0 .01 0 0 -1 14 168 264 193 ?161 181 19
2 6 195 +0 0 161 181 23 50 172 281 0 161 162 195 0 +0 .18 -3469446951953615e-33
 0 -1 0 1 0 0 81 1 193 441 163 168 194 0 189 164 199 15 192 267 0 135 168 200 17
 135 0 192 135 135 0 197 104 0 0 +15 200 268 0 198 168 0 17 198 0 200 198 198 0
 128 124 0 0 -17 128 0 191 128 128 0 198 124 0 0 +15 191 247 0 128 181 185 17 19
7 0 171 197 197 0 135 104 0 0 -15 171 272 0 197 161 0 80 1 163 0 196 8001 0 0 0
 0 3 5 0 0 0 FFFFTFTFFFFFFFFFF2 81 1 194 266 34 168 0 193 131 203 205 81 1 189 4
40 163 181 201 0 186 193 204 81 1 164 442 163 161 203 0 193 159 202 83 255 3 199
 .980392156862745 .713725490196078 .00392156862745098 81 1 203 271 34 161 0 164
 194 206 210 83 3 202 .980392156862745 .713725490196078 .00392156862745098 81 1
 206 284 34 1 0 208 203 126 207 82 3 210 23 2 2 81 1 208 432 209 1 206 14 0 0 21
1 81 1 126 285 34 124 0 0 206 201 215 82 3 207 22 0 3 81 1 201 286 34 181 0 189
 126 138 213 82 3 215 24 0 1 81 1 138 424 34 136 0 0 201 133 212 82 3 213 24 0 2
 81 1 133 425 34 127 0 0 138 142 214 82 3 212 28 0 1 81 1 142 426 34 144 0 0 133
 141 216 82 3 214 28 1 1 82 3 216 28 2 1 80 1 209 220 217 8038 0 0 0 0 0 0 0 0 0
 TTTTTTTTTTTTTFTFT10 81 1 14 433 220 1 208 2 0 0 218 98 255 6 211 80 97 114 116
 32 52 80 1 220 219 222 8017 0 0 0 0 0 0 0 0 0 TTTTTTTTTTTTTFTFT3 84 255 6 218 P
art 479 255 13 222 SDL/TYSA_NAME79 14 217 SDL/TYSA_UNAME81 1 186 439 163 76 225
 0 183 189 224 83 3 204 .980392156862745 .713725490196078 .00392156862745098 81
 1 225 240 34 76 0 186 98 221 223 83 3 224 .980392156862745 .713725490196078 .00
392156862745098 81 1 98 237 34 91 0 0 112 225 226 81 1 221 242 34 84 0 176 225 1
84 227 82 3 223 22 2 2 81 1 176 436 163 84 221 0 174 152 229 81 1 184 243 34 154
 0 183 221 131 228 82 3 227 22 4 2 81 1 131 258 34 104 0 0 184 194 230 82 3 228
 22 5 2 82 3 230 23 1 1 81 1 152 437 163 93 231 0 176 183 235 83 3 229 .98039215
6862745 .713725490196078 .00392156862745098 81 1 231 431 34 93 0 152 175 0 233 8
3 3 235 .980392156862745 .713725490196078 .00392156862745098 81 1 175 430 34 17
 0 174 232 231 234 82 3 233 28 3 2 81 1 232 429 34 151 0 167 150 175 240 82 3 23
4 28 2 2 81 1 167 444 163 151 232 0 159 0 236 81 1 150 428 34 157 0 159 141 232
 238 82 3 240 28 1 2 82 3 238 28 0 2 83 3 236 .980392156862745 .713725490196078
 .00392156862745098 81 1 112 236 34 108 0 0 85 98 237 82 3 226 22 11 1 81 1 85 2
35 34 72 0 0 96 112 239 82 3 237 22 10 1 81 1 96 234 34 90 0 0 95 85 241 82 3 23
9 22 9 1 82 3 241 22 8 1 82 3 205 23 0 2 79 15 196 SDL/TYSA_COLOUR83 3 190 .9803
92156862745 .713725490196078 .00392156862745098 17 88 0 185 89 115 49 56 110 0 0
 -17 56 0 87 60 82 55 88 110 0 115 +17 137 0 165 137 137 0 179 136 0 0 +17 134 0
 169 134 134 0 178 127 0 0 +15 169 365 0 134 151 149 83 3 180 .980392156862745 .
713725490196078 .00392156862745098 51 166 412 0 151 0 162 0 +-.0275 -.01 -.53638
7684387492 -925185853854297e-31 0 1 .005 1 0 925185853854297e-31 83 3 170 .98039
2156862745 .713725490196078 .00392156862745098 82 3 146 28 3 1 17 80 0 71 73 45
 12 38 91 0 0 -17 38 0 31 53 29 26 80 91 0 0 +81 1 111 227 34 39 0 0 24 86 245 8
2 3 118 22 2 1 81 1 24 226 34 11 0 0 41 111 242 82 3 245 22 1 1 81 1 41 225 34 2
6 0 0 52 24 243 82 3 242 22 0 1 82 3 243 22 7 0 79 9 119 BTI/DetId82 3 100 22 7
 1 17 25 0 81 51 67 50 66 11 0 89 +81 1 32 222 34 49 0 0 30 54 244 82 3 75 22 5
 0 82 3 244 22 4 0 81 1 47 218 34 50 0 0 0 61 246 82 3 68 22 1 0 82 3 246 22 0 0
 82 3 62 22 2 0 82 3 57 22 6 0 82 3 33 22 3 0 19 18 204 0 1 0 10 6 0 S0 74 4 CI1
6 index_map_offset0 0 1 dCCZ20 16 5 0 0 231 208 14 2 167 0 0 0 0 0 0 0 0 0 0 0 0
 0 0 0 80 1 13 163 250 8040 0 0 0 0 3 5 0 0 0 TTTFFFFFFFFFFFFFF2 83 3 15 .980392
156862745 .713725490196078 .00392156862745098 79 17 250 SDL/TYSA_COLOUR_21 0 
