**ABCDEFGHIJKLMNOPQRSTUVWXYZabcdefghijklmnopqrstuvwxyz**************************
**PARASOLID !"#$%&'()*+,-./:;<=>?@[\]^_`{|}~0123456789**************************
**PART1;
MC=unknown;
MC_MODEL=unknown;
MC_ID=unknown;
OS=unknown;
OS_RELEASE=unknown;
FRU=Parasolid 37.1.212;
APPL=Onshape;
SITE=unknown;
USER=unknown;
FORMAT=text;
GUISE=transmit;
KEY=BTGapi::writeModels_.xmt;
FILE=BTGapi::writeModels_.xmt;
DATE=2026-04-21T02:50:40 (UTC);
**PART2;
SCH=SCH_3701212_37102;
USFLD_SIZE=0;
**PART3;
**END_OF_HEADER*****************************************************************
T51 : TRANSMIT FILE created by modeller version 370121223 SCH_3701212_37102_1300
6239 0 12 36 CCCI7 lattice222 0 CCCI4 mesh1006 0 I8 polyline1008 0 CCCCCCCDI5 ow
ner1040 0 CCCI16 boundary_lattice222 0 CCCI13 boundary_mesh1006 0 I17 boundary_p
olyline1008 0 CCCA16 index_map_offset0 0 1 dA9 index_map82 0 A17 node_id_index_m
ap82 0 A20 schema_embedding_map82 0 A5 child12 0 A14 lowest_node_id0 0 1 dA16 me
sh_offset_data206 0 Z1 2938 2 3 0 0 0 0 0 0 0 1e3 1e-8 0 4 5 1 0 1 2 6 0 7 8 9 0
 0 10 11 12 0 0 0 0 0 0 0 81 255 1 2 2902 13 1 14 0 0 0 15 70 11 CI9 list_type0
 0 1 uI10 notransmit0 0 1 lCCCDCCDI12 finger_index0 0 1 dI12 finger_block1012 0
 CZ3 0 4 T1 0 0 5 20 1 16 16 13 255 6 137 0 1 0 17 0 0 18 0 51 255 7 1600 0 19 2
0 0 21 +-.0522 -.0139 .0061 0 -1 0 .002 0 0 -1 31 255 8 2163 0 11 22 0 0 +-.0816
 -.0179 -.0109 0 0 1 1 0 0 75e-5 29 255 9 2138 0 12 23 0 -.0542 -.01065 -.0109 1
9 9 CCCCCCI5 frame230 0 CA5 owner12 0 Z10 48 0 1 18 0 24 0 V0 16 255 11 2161 25
 ?27 0 30 8 0 0 1 18 255 12 2134 29 26 0 28 9 ?1 81 1 29 2747 34 12 0 0 35 32 33
 17 255 26 0 31 38 40 12 36 39 0 37 +18 28 2119 41 45 12 43 23 ?1 81 1 41 2744 3
4 28 0 0 42 44 46 17 45 0 50 48 47 28 49 51 0 55 +18 43 2109 42 52 28 53 54 ?1 2
9 23 2123 0 28 54 9 -.0816 -.00915 -.0109 29 54 2113 0 43 57 23 -.0816 -.01715 -
.0109 29 57 2093 0 53 60 54 -.0542 -.01865 -.0024 18 53 2089 59 56 43 58 57 ?1 2
9 60 2082 0 58 61 57 -.0542 -.01715 -.0084 18 58 2078 62 64 53 63 60 ?1 29 61 17
06 0 63 65 60 -.0542 -.01911915080025795 -.0084 18 63 1704 67 70 58 69 61 ?1 29
 65 1544 0 69 66 61 -.0542 -.0057 .0061 18 69 1541 68 75 63 71 65 ?1 29 66 1540
 0 71 73 65 -.0542 -.0221 .0061 18 71 1537 72 74 69 76 66 ?1 29 73 1531 0 76 80
 66 -.0522 -.0057 .0081 18 76 1528 77 78 71 79 73 ?1 29 80 1527 0 79 82 73 -.052
2 -.0221 .0081 18 79 1524 85 84 76 81 80 ?1 29 82 1443 0 81 83 80 -.0816 -.0057
 .00609987272918224 18 81 1440 89 90 79 87 82 ?1 29 83 1439 0 87 88 82 -.0816 -.
0221 .00609987272918224 18 87 1436 86 93 81 95 83 ?1 29 88 1430 0 95 91 83 -.083
6 -.0057 .00809987272918224 18 95 1427 94 92 87 96 88 ?1 29 91 1426 0 96 100 88
 -.0836 -.0221 .00809987272918224 18 96 1423 98 97 95 99 91 ?1 29 100 1055 0 99
 101 91 -.0567 -.0201 .0081 18 99 1053 105 103 96 102 100 ?1 29 101 1047 0 102 1
04 100 -.0567 -.0077 .0081 18 102 1045 106 110 99 107 101 ?1 29 104 1028 0 107 1
08 101 -.0567 -.0077 .0111 18 107 1024 109 112 102 115 104 ?1 29 108 1023 0 115
 114 104 -.0567 -.0201 .0111 18 115 1019 111 113 107 116 108 ?1 29 114 997 0 116
 117 108 -.0562 -.0077 .0081 18 116 993 119 118 115 120 114 ?1 29 117 992 0 120
 122 114 -.0562 -.0201 .0081 18 120 988 125 124 116 121 117 ?1 29 122 113 0 121
 123 117 -.0816 -.0221 -.0109 18 121 92 130 126 120 128 122 ?1 29 123 114 0 128
 127 122 -.0816 -.0057 -.0109 18 128 96 129 131 121 135 123 ?1 29 127 115 0 135
 132 123 -.0542 -.0057 -.0109 18 135 100 133 134 128 137 127 ?1 29 132 116 0 137
 140 127 -.0542 -.0221 -.0109 18 137 104 139 136 135 138 132 ?1 29 140 278 0 144
 145 132 -.0796 -.0077 -.0089 18 144 230 142 143 138 141 140 ?1 29 145 279 0 141
 148 140 -.0562 -.0077 -.0089 18 141 224 150 146 144 149 145 ?1 29 148 280 0 138
 147 145 -.0796 -.0201 -.0089 18 138 222 151 155 137 144 148 ?1 29 147 281 0 149
 153 148 -.0562 -.0201 -.0089 18 149 226 152 154 141 156 147 ?1 29 153 823 0 156
 160 147 -.0796 -.0077 .00809987272918224 18 156 723 158 157 149 159 153 ?1 29 1
60 824 0 159 161 153 -.0796 -.0201 .00809987272918224 18 159 724 165 162 156 163
 160 ?1 29 161 827 0 163 164 160 -.0791 -.0201 .00809987272918224 18 163 718 167
 170 159 169 161 ?1 29 164 828 0 169 166 161 -.0791 -.0077 .00809987272918224 18
 169 720 168 171 163 172 164 ?1 29 166 833 0 172 174 164 -.0791 -.0077 .0111 18
 172 719 173 175 169 177 166 ?1 29 174 834 0 177 180 166 -.0791 -.0201 .0111 18
 177 741 179 176 172 178 174 ?1 29 180 839 0 178 185 174 -.0841 -.0057 .0111 18
 178 739 181 183 177 182 180 ?1 29 185 840 0 182 184 180 -.0841 -.0221 .0111 18
 182 715 186 190 178 187 185 ?1 29 184 841 0 187 188 185 -.0841 -.0221 .00809987
272918224 18 187 737 189 192 182 195 184 ?1 29 188 842 0 195 194 184 -.0841 -.00
57 .00809987272918224 18 195 731 191 193 187 199 188 ?1 29 194 1357 0 199 200 18
8 -.0517 -.0221 .0111 18 199 1241 197 198 195 196 194 ?1 29 200 1358 0 196 203 1
94 -.0517 -.0057 .0111 18 196 1233 205 201 199 204 200 ?1 29 203 1359 0 204 202
 200 -.0517 -.0057 .0081 18 204 1256 206 210 196 208 203 ?1 29 202 1360 0 208 20
7 203 -.0517 -.0221 .0081 18 208 1238 209 211 204 215 202 ?1 29 207 1874 0 215 2
13 202 -.0542 -.0139 -.0024 18 215 1803 212 214 208 216 207 ?1 29 213 1875 0 216
 220 207 -.0542 -.01911915080025795 -.0024 18 216 1806 217 218 215 219 213 ?1 29
 220 1876 0 219 222 213 -.0542 -.0139 -.0084 18 219 1794 225 224 216 221 220 ?1
 29 222 1882 0 221 223 220 -.05605 -.0139 -.0084 18 221 1795 226 227 219 229 222
 ?1 29 223 1883 0 229 228 222 -.05605 -.01911915080025795 -.0084 18 229 1801 230
 232 221 235 223 ?1 29 228 1884 0 235 234 223 -.05605 -.01911915080025795 -.0024
 18 235 1799 231 233 229 240 228 ?1 29 234 1885 0 240 236 228 -.05605 -.0139 -.0
024 18 240 1797 238 237 235 239 234 ?1 29 236 2584 0 239 241 234 -.0816 -.01865
 .00609987272918225 18 239 2370 245 242 240 243 236 ?1 29 241 2585 0 243 244 236
 -.0816 -.01715 .00609987272918225 18 243 2372 247 250 239 249 241 ?1 29 244 258
7 0 249 246 241 -.0816 -.01865 -.0109 18 249 2371 248 254 243 255 244 ?1 29 246
 2588 0 255 252 244 -.0542 -.01065 .0061 18 255 2415 253 40 249 251 246 ?1 29 25
2 2589 0 251 258 246 -.0542 -.00915 .0061 18 251 2413 260 256 255 259 252 ?1 29
 258 2590 0 259 257 252 -.0542 -.00915 -.0109 18 259 2414 35 38 251 261 258 ?1 2
9 257 2592 0 261 265 258 -.0816 -.01065 .00609987272918225 18 261 2520 263 262 2
59 264 257 ?1 29 265 2593 0 264 266 257 -.0816 -.00915 .00609987272918225 18 264
 2522 270 47 261 268 265 ?1 29 266 2595 0 268 267 265 -.0816 -.01065 -.0109 18 2
68 2521 44 48 264 269 266 ?1 29 267 2596 0 269 271 266 -.0542 -.01865 .0061 18 2
69 2472 275 272 268 273 267 ?1 29 271 2597 0 273 274 267 -.0542 -.01715 .0061 18
 273 2468 277 280 269 279 271 ?1 29 274 2598 0 279 276 271 -.0542 -.01715 -.0024
 18 279 2469 278 281 273 282 274 ?1 29 276 2600 0 282 284 274 -.0542 -.01865 -.0
109 18 282 2470 32 283 279 285 276 ?1 29 284 2601 0 285 287 276 -.0542 -.01715 -
.0109 18 285 2474 290 289 282 286 284 ?1 29 287 2603 0 286 0 284 -.0542 -.01865
 -.0084 18 286 2471 288 295 285 0 287 ?1 81 1 288 2761 34 286 0 0 62 291 293 17
 295 0 292 283 64 286 294 296 0 300 -15 255 292 2484 0 289 297 0 17 283 0 292 28
9 295 282 300 298 0 299 +17 64 0 292 295 289 58 302 305 0 294 +17 294 0 304 224
 301 58 295 296 0 303 +16 296 2083 309 ?294 310 307 308 0 0 1 17 300 0 306 313 3
15 286 283 298 0 301 -15 306 2287 0 311 314 0 17 313 0 306 312 300 63 301 316 0
 0 -17 315 0 306 300 136 282 320 318 0 0 +16 298 2456 317 ?283 319 305 321 325 3
25 1 17 301 0 304 294 70 286 313 316 0 0 +15 304 1829 0 301 323 0 17 70 0 304 30
1 322 63 232 324 0 326 +16 316 1708 330 ?301 327 328 329 328 328 1 81 1 330 2853
 34 316 0 0 332 335 334 16 327 1712 331 ?312 333 316 336 0 0 1 16 328 2079 332 ?
224 316 337 329 316 316 1 30 255 329 1710 0 316 339 336 0 +-.0542 -.0139 -.0084
 0 1 0 31 339 1599 0 337 338 329 0 --.0522 -.0057 .0061 1266221515311538e-31 -1
 0 1 1266221515311538e-31 0 .002 30 336 1714 0 327 329 340 0 +-.0542 -.019119150
80025795 .0111 0 0 1 30 340 1718 0 342 336 345 0 +-.0542 -.0139 -.0024 0 1 16618
8288321836e-30 16 342 1716 344 ?341 307 333 340 333 333 1 30 345 1721 0 307 340
 308 0 +-.0542 -.0139 .0111 0 0 1 16 307 1719 343 ?350 296 342 345 0 0 1 31 308
 2085 0 296 345 346 0 --.0542 -.0179 -.0084 0 0 1 1 0 0 75e-5 31 346 2146 0 310
 308 22 0 +-.0816 -.0099 -.0109 0 0 1 1 0 0 75e-5 16 310 2144 348 ?55 30 296 346
 0 0 1 31 22 2157 0 30 346 8 0 --.0542 -.0099 -.0109 0 0 1 1 0 0 75e-5 16 30 215
5 347 ?38 11 310 22 0 0 1 81 1 347 2826 34 30 0 0 348 349 351 17 38 0 31 256 26
 259 37 30 0 355 +15 31 2421 0 40 352 0 17 256 0 31 40 38 251 355 353 0 354 +17
 37 0 357 360 359 12 38 30 0 356 -17 355 0 358 134 364 259 256 353 0 359 -15 358
 2292 0 355 365 0 17 134 0 358 362 355 135 359 363 0 361 +17 364 0 358 355 362 2
51 368 370 0 0 +16 353 2398 366 ?256 39 369 367 0 0 1 17 359 0 357 37 371 259 13
4 363 0 0 -15 357 2156 0 375 373 0 17 371 0 357 359 131 135 372 374 0 0 -16 363
 2140 376 ?134 380 378 377 380 318 1 81 1 376 2839 34 363 0 0 379 381 385 16 380
 2130 381 ?356 318 363 377 318 363 1 16 378 88 291 ?382 363 383 384 0 0 1 30 377
 111 0 318 384 387 0 +-.0542 -.0139 -.0109 0 1 0 16 318 84 379 ?315 374 380 377
 363 380 1 81 1 379 2838 34 318 0 0 309 376 390 16 374 80 389 ?372 386 318 387 0
 0 1 81 1 389 2763 34 374 0 0 291 388 391 17 372 0 392 394 361 128 371 374 0 0 +
16 386 2120 393 ?131 395 374 397 395 400 1 30 387 110 0 374 377 397 0 +-.0679 -.
0057 -.0109 -1 -1266221515311538e-31 0 30 397 109 0 400 387 399 0 +-.0816 -.0139
 -.0109 0 1 0 16 400 76 396 ?375 398 395 397 386 395 1 30 399 133 0 405 397 401
 0 +-.0816 -.0221 .0111 0 0 -1 16 405 1437 403 ?126 402 404 399 0 0 1 30 401 134
 0 402 399 406 0 +-.0816 -.0057 .0111 0 0 -1 16 402 1441 410 ?407 408 405 401 0
 0 1 30 406 135 0 408 401 409 0 +-.0542 -.0057 .0111 0 0 -1 16 408 1542 412 ?361
 415 402 406 0 0 1 30 409 136 0 415 406 414 0 +-.0542 -.0221 .0111 0 0 -1 16 415
 1538 411 ?136 413 408 409 0 0 1 31 414 351 0 419 409 420 0 +-.0679 -.0139 -.008
9 0 0 1 1 0 0 .003959327434217225 16 419 372 417 ?418 416 423 414 0 0 1 30 420 4
82 0 413 414 425 0 +-.0796 -.0139 .00809987272918224 0 1 0 16 413 480 421 ?157 4
24 415 420 0 0 1 30 425 494 0 424 420 422 0 +-.0791 -.0077 .0111 0 0 -1 16 424 4
92 426 ?430 428 413 425 0 0 1 30 422 1000 0 428 425 427 0 +-.0562 -.0139 .0081 0
 1 0 16 428 998 429 ?118 431 424 422 0 0 1 30 427 1433 0 431 422 435 0 +-.0836 -
.0139 .00809987272918224 0 -1 0 16 431 1431 433 ?432 434 428 427 0 0 1 30 435 14
46 0 436 427 440 0 --.0816 -.0139 .00609987272918224 0 -1 0 16 436 1444 437 ?438
 439 442 435 434 442 1 31 440 1477 0 439 435 445 0 --.0836 -.0057 .0060998727291
8224 1266221515311538e-31 -1 0 1 1266221515311538e-31 0 .002 16 439 1457 444 ?44
1 443 436 440 0 0 1 31 445 1498 0 443 440 446 0 +-.0836 -.0221 .0060998727291822
4 1266221515311538e-31 -1 0 1 1266221515311538e-31 0 .002 16 443 1478 447 ?97 44
9 439 445 0 0 1 30 446 1534 0 449 445 448 0 +-.0522 -.0139 .0081 0 1 0 16 449 15
32 450 ?452 455 443 446 0 0 1 30 448 1547 0 370 446 338 0 --.0542 -.0139 .0061 0
 1 0 16 370 1545 454 ?364 451 453 448 455 453 1 31 338 1578 0 451 448 339 0 +-.0
522 -.0221 .0061 1266221515311538e-31 -1 0 1 1266221515311538e-31 0 .002 16 451
 1558 460 ?456 337 370 338 0 0 1 81 1 460 2808 34 451 0 0 450 458 457 17 456 0 4
59 461 465 71 84 451 0 462 +16 337 1579 458 ?78 328 451 339 0 0 1 81 1 458 2809
 34 337 0 0 460 411 463 17 78 0 459 465 368 76 75 337 0 452 +15 459 2271 0 354 1
9 0 17 465 0 459 456 78 79 452 449 0 464 -17 368 0 459 78 354 69 364 370 0 362 -
17 75 0 392 361 467 69 78 337 0 368 -17 452 0 470 469 464 76 465 449 0 467 +15 4
70 1278 0 464 466 0 17 469 0 470 211 452 204 467 468 0 474 -17 464 0 470 452 211
 79 475 472 0 0 +17 467 0 392 75 474 76 469 468 0 0 +15 392 1602 0 75 473 0 17 4
74 0 392 467 201 204 471 478 0 0 +16 468 1128 480 ?467 472 476 479 0 0 1 81 1 48
0 2813 34 468 0 0 477 343 481 16 472 1150 477 ?464 485 468 483 0 0 1 16 476 1162
 482 ?484 468 478 486 0 0 1 30 479 1330 0 468 490 483 0 +-.0517 -.0057 .0081 -1
 0 0 30 490 1333 0 488 487 479 0 +-.0567 -.0139 .0111 0 1 0 30 483 1329 0 472 47
9 489 0 +-.0517 -.0221 .0081 -1 0 0 30 489 1327 0 485 483 491 0 +-.0679 -.0077 .
0081 -1 -1266221515311538e-31 0 16 485 1195 495 ?110 492 472 489 0 0 1 30 491 13
26 0 492 489 493 0 +-.0679 -.0201 .0081 -1 -1266221515311538e-31 0 16 492 1156 4
94 ?497 500 485 491 0 0 1 30 493 1324 0 500 491 499 0 +-.0567 -.0077 .0111 0 0 1
 16 500 1137 496 ?112 498 492 493 0 0 1 30 499 1323 0 498 493 501 0 +-.0567 -.02
01 .0111 0 0 1 16 498 1131 502 ?504 503 500 499 0 0 1 30 501 822 0 505 499 507 0
 +-.0841 -.0057 .0111 0 0 -1 16 505 700 510 ?509 506 508 501 0 0 1 30 507 821 0
 506 501 515 0 +-.0841 -.0139 .00809987272918224 0 -1 0 16 506 703 511 ?192 513
 505 507 0 0 1 30 515 820 0 513 507 512 0 +-.0841 -.0221 .0111 0 0 -1 16 513 602
 514 ?516 520 506 515 0 0 1 30 512 819 0 520 515 517 0 +-.0841 -.0139 .0111 0 1
 0 16 520 706 518 ?519 522 513 512 0 0 1 30 517 817 0 503 512 525 0 +-.0791 -.01
39 .00809987272918224 0 -1 0 16 503 628 524 ?521 508 498 517 0 0 1 30 525 815 0
 508 517 523 0 +-.0791 -.0139 .0111 0 1 0 16 508 657 529 ?530 505 503 525 0 0 1
 30 523 812 0 522 525 527 0 +-.0841 -.0221 .00809987272918224 1 0 0 16 522 605 5
28 ?526 533 520 523 0 0 1 30 527 811 0 533 523 535 0 +-.0841 -.0057 .00809987272
918224 1 0 0 16 533 680 531 ?534 532 522 527 0 0 1 30 535 809 0 532 527 536 0 +-
.0679 -.0077 .00809987272918224 -1 -1266221515311538e-31 0 16 532 631 540 ?538 5
37 533 535 0 0 1 30 536 808 0 537 535 539 0 +-.0679 -.0201 .00809987272918224 -1
 -1266221515311538e-31 0 16 537 640 541 ?162 423 532 536 0 0 1 30 539 806 0 423
 536 545 0 +-.0791 -.0201 .0111 0 0 -1 16 423 614 543 ?170 419 537 539 0 0 1 31
 545 406 0 416 539 542 0 +-.0679 -.0139 -.0109 0 0 1 1 0 0 .003959327434217225 1
6 416 366 544 ?546 550 419 545 0 0 1 30 542 273 0 550 545 547 0 +-.0679 -.0201 -
.0089 -1 -1266221515311538e-31 0 16 550 216 388 ?548 549 416 542 0 0 1 30 547 27
2 0 383 542 552 0 +-.0562 -.0201 .0111 0 0 -1 16 383 202 555 ?154 378 554 547 0
 0 1 30 552 271 0 551 547 553 0 +-.0796 -.0201 .0111 0 0 -1 16 551 198 556 ?155
 557 559 552 0 0 1 30 553 270 0 549 552 558 0 +-.0562 -.0139 -.0089 0 1 0 16 549
 200 560 ?562 565 550 553 0 0 1 30 558 269 0 554 553 564 0 +-.0562 -.0077 .0111
 0 0 -1 16 554 206 561 ?146 383 557 558 0 0 1 30 564 268 0 565 558 563 0 +-.0679
 -.0077 -.0089 -1 -1266221515311538e-31 0 16 565 204 570 ?566 568 549 564 0 0 1
 30 563 267 0 557 564 567 0 +-.0796 -.0077 .0111 0 0 -1 16 557 210 569 ?143 554
 551 563 0 0 1 30 567 266 0 568 563 571 0 +-.0796 -.0139 -.0089 0 1 0 16 568 218
 575 ?572 573 565 567 0 0 1 30 571 265 0 573 567 574 0 +-.0679 -.0201 .0111 -1 -
1266221515311538e-31 0 16 573 196 577 ?176 559 568 571 0 0 1 30 574 263 0 559 57
1 580 0 +-.0679 -.0077 .0111 -1 -1266221515311538e-31 0 16 559 214 579 ?175 551
 573 574 0 0 1 30 580 9 0 398 574 576 0 +-.0679 -.0221 .0111 -1 -126622151531153
8e-31 0 16 398 7 578 ?190 404 400 580 0 0 1 30 576 19 0 404 580 384 0 +-.0679 -.
0057 .0111 -1 -1266221515311538e-31 0 16 404 17 584 ?183 405 398 576 0 0 1 30 38
4 112 0 378 576 377 0 +-.0679 -.0221 -.0109 -1 -1266221515311538e-31 0 81 1 584
 2793 34 404 0 0 578 555 585 17 183 0 582 583 484 178 201 404 0 519 +15 582 1041
 0 583 581 588 17 583 0 582 198 183 182 519 520 0 590 -17 484 0 582 183 198 196
 586 476 0 0 +17 201 0 392 474 589 196 183 404 0 471 -17 519 0 587 509 590 178 5
83 520 0 589 +15 587 793 0 509 591 0 17 509 0 587 192 519 195 589 505 0 595 +17
 590 0 587 519 192 182 516 513 0 0 -17 589 0 392 201 595 178 509 505 0 0 -17 595
 0 392 589 92 195 534 533 0 0 -17 92 0 392 595 394 95 441 439 0 593 -17 534 0 59
2 432 193 95 595 533 0 0 +15 592 781 0 534 594 0 17 432 0 592 596 534 96 593 431
 0 526 +17 193 0 592 534 596 195 192 506 0 509 -17 596 0 592 193 432 187 526 522
 0 516 -17 192 0 587 590 509 187 193 506 0 596 +17 526 0 600 93 516 96 596 522 0
 0 +17 516 0 600 526 190 187 590 513 0 0 +15 600 1501 0 93 598 0 17 190 0 600 51
6 597 182 198 398 0 583 +17 597 0 600 190 475 199 599 601 0 586 -17 198 0 582 48
4 583 199 190 398 0 597 -17 475 0 600 597 84 208 464 472 0 0 -17 599 0 605 210 5
86 208 597 601 0 475 +16 601 1220 602 ?599 603 488 604 0 0 1 17 586 0 605 599 47
1 199 484 476 0 0 -15 605 1310 0 599 607 0 17 471 0 605 586 210 196 474 478 0 48
4 -17 210 0 605 471 599 204 211 603 0 469 +16 478 1125 610 ?474 476 603 609 0 0
 1 81 1 610 2786 34 478 0 0 602 429 606 16 603 1223 608 ?210 478 601 611 0 0 1 3
0 609 1338 0 478 611 486 0 +-.0517 -.0057 .0111 0 0 -1 30 611 1339 0 603 604 609
 0 +-.0517 -.0139 .0081 0 1 0 30 486 1337 0 476 609 487 0 +-.0517 -.0139 .0111 0
 1 0 30 487 1335 0 612 486 490 0 +-.0567 -.0139 .0081 0 1 0 16 612 1189 614 ?613
 488 615 487 0 0 1 81 1 614 2799 34 612 0 0 617 433 620 17 613 0 619 616 497 102
 618 612 0 0 +16 488 1226 617 ?625 601 612 490 0 0 1 16 615 1734 621 ?623 612 62
2 624 0 0 1 81 1 621 2816 34 615 0 0 331 626 630 17 623 0 627 628 629 215 237 61
5 0 0 +16 622 1737 626 ?632 615 324 635 0 0 1 30 624 1862 0 615 635 604 0 +-.056
05 -.0139 -.0024 1 0 0 30 635 1863 0 622 634 624 0 +-.05605 -.01911915080025795
 -.0024 1 0 0 30 604 1340 0 601 624 611 0 +-.0517 -.0221 .0111 0 0 -1 30 634 186
4 0 324 631 635 0 +-.05605 -.01911915080025795 -.0084 1 0 0 16 324 1746 633 ?70
 622 639 634 0 0 1 30 631 1865 0 639 640 634 0 +-.05605 -.0139 -.0084 1 0 0 16 6
39 1755 637 ?638 324 636 631 0 0 1 30 640 1870 0 636 643 631 0 +-.05605 -.016509
57540012895 -.0084 0 -1 0 16 636 1785 645 ?322 639 641 640 0 0 1 30 643 1871 0 6
41 644 640 0 +-.05605 -.01911915080025795 -.0054 0 0 -1 16 641 1752 642 ?646 636
 650 643 0 0 1 30 644 1872 0 650 648 643 0 +-.05605 -.01650957540012895 -.0024 0
 -1 -166188288321836e-30 16 650 1743 647 ?649 641 651 644 0 0 1 30 648 1873 0 65
1 655 644 0 +-.05605 -.0139 -.0054 0 0 -1 16 651 1782 653 ?652 650 654 648 0 0 1
 38 12 CCCCCCCCCCCA17 intersection_data204 0 Z655 2562 0 654 656 648 0 +20 660 6
57 658 659 662 16 654 2350 665 ?664 651 661 655 0 0 1 30 656 2563 0 661 663 655
 0 +-.0816 -.01865 -.03136845027788935 0 0 1 51 20 1499 0 666 667 7 669 +-.0836
 -.0139 .00609987272918224 0 -1 0 .002 0 0 -1 51 660 2556 0 668 670 672 675 +-.0
816 -.0179 -.03136845027788935 0 0 1 75e-5 1 0 0 40 255 14 657 0 1 14 .000115094
2650421918 .3959095084518225 ??-.0816 -.01715 .00609987272918224 -.0817124283277
667 -.01715847463218335 .00676098783427538 -.0819168469579435 -.0172202147359334
5 .00718014854443313 -.0820935614521582 -.017335290257793 .00741541174478623 -.0
822282482968573 -.01749036104006595 .00755530986795712 -.082324254398777 -.01770
517811762485 .00764015619691154 -.0823498114537374 -.0179168161780528 .007660971
25227221 -.0823196332334242 -.01811125342447265 .00763631698233569 -.08224476074
96876 -.01828312344702765 .00757069786304845 -.0821344131381628 -.01842621535302
48 .00746077505867183 -.0819605909950966 -.0185576276562427 .00724544599817967 -
.0817486504286172 -.01863512111251955 .00685651317519379 -.0816043202844362 -.01
86499875566584 .00623125945943794 -.0816 -.01865 .00609987272918224 41 3 CI8 ter
m_use0 0 1 cCZ1 658 L?-.0816 -.01715 .00609987272918224 41 1 659 L?-.0816 -.0186
5 .00609987272918224 204 2 17 INTERSECTION_DATA17 Intersection data7 uv_type0 0
 1 u6 values0 1 1 fT56 662 4 1.570796326794895 .00325 1.57079632679489 .03746832
300707155 1.907690602600855 .00325847463218333 1.721267943729825 .03812943811216
47 2.141397295774155 .003320214735933425 2.006956904627715 .03854859882232245 2.
2886499657097 .003435290257793 2.28906483165154 .03878386202267555 2.38578607821
9565 .003590361040065925 2.56378920867825 .03892376014584645 2.44985964636141 .0
03805178117624845 2.87881639122241 .03900860647480085 2.46634034855365 .00401681
617805281 3.164016103406215 .03902942153016155 2.446855700418175 .00421125342447
265 3.4271280731914 .039004767260225 2.397071654175105 .00438312344702767 3.6777
44109596225 .03893914814093775 2.319174463535245 .00452621535302479 3.9192617940
8595 .03882922533656115 2.18069772005754 .00465762765624272 4.21083581179192 .03
8613896276069 1.958777297516925 .00473512111251952 4.5128672505471 .038224963453
0831 1.63653703516968 .00474998755665837 4.70662856927913 .03759970973732725 1.5
70796326794895 .00475 4.71238898038469 .03746832300707155 14 255 668 2379 674 ?0
 352 671 6 660 -0 0 0 352 24 51 670 2559 0 673 0 660 680 --.0542 -.0179 -.031368
45027788935 0 0 1 75e-5 1 0 0 51 672 2553 0 352 660 676 678 --.0542 -.0099 -.031
36845027788935 0 0 1 75e-5 1 0 0 141 255 675 655 675 675 660 14 352 2422 677 ?66
8 679 681 6 672 +0 0 668 679 24 51 676 2550 0 679 672 685 682 +-.0816 -.0099 -.0
3136845027788935 0 0 1 75e-5 1 0 0 141 678 683 678 678 672 38 683 2565 0 684 687
 663 0 +7 672 690 689 686 688 16 684 2401 694 ?40 695 39 683 0 0 1 30 687 2566 0
 39 367 683 0 --.0542 -.01065 -.03136845027788935 0 0 1 30 663 2564 0 695 683 65
6 0 --.0816 -.01715 -.03136845027788935 0 0 1 40 14 690 0 1 14 .0001150942650421
92 .3959095084518225 ??-.0542 -.00915 .0061 -.0540875716722333 -.009158474632183
32 .00676111510509314 -.0538831530420565 -.00922021473593343 .00718027581525089
 -.0537064385478418 -.009335290257793 .00741553901560399 -.0535717517031427 -.00
949036104006593 .00755543713877487 -.053475745601223 -.00970517811762485 .007640
2834677293 -.0534501885462627 -.00991681617805281 .00766109852308996 -.053480366
7665758 -.01011125342447264 .00763644425315345 -.0535552392503125 -.010283123447
02766 .0075708251338662 -.0536655868618372 -.0104262153530248 .00746090232948958
 -.0538394090049035 -.01055762765624272 .00724557326899743 -.0540513495713829 -.
01063512111251952 .00685664044601155 -.0541956797155638 -.01064998755665836 .006
23138673025569 -.0542 -.01065 .0061 41 1 689 L?-.0542 -.00915 .0061 41 1 686 L?-
.0542 -.01065 .0061 204 56 688 4 4.71238898038469 -.00475 1.5707963267949 .03746
845027788935 4.37549470457873 -.00474152536781668 1.42032470985997 .038129565382
98245 4.141788011405425 -.00467978526406657 1.134635748962074 .0385487260931402
 3.994535341469885 -.004564709742207 .852527821938251 .0387839892934933 3.897399
22896002 -.004409638959934075 .577803444911543 .0389238874166642 3.8333256608181
75 -.004194821882375155 .262776262367385 .0390087337456186 3.81684495862594 -.00
398318382194719 6.26076185736317 .0390295488009793 3.83632960676141 -.0037887465
7552735 5.99764988757798 .03900489453104275 3.88611365300448 -.00361687655297233
 5.74703385117315 .03893927541175555 3.96401084364434 -.003473784646975215 5.505
51616668343 .0388293526073789 4.102487587122045 -.003342372343757285 5.213942148
97746 .03861402354688675 4.32440800966266 -.00326487888748048 4.91191071022228 .
0382250907239009 4.6466482720099 -.00325001244334163 4.71814939149025 .037599837
008145 4.71238898038469 -.00325 4.71238898038469 .03746845027788935 16 695 2356
 692 ?52 661 684 663 0 0 1 81 1 692 2855 34 695 0 0 335 693 691 17 52 0 698 254
 250 43 700 695 0 27 +16 661 2359 335 ?242 654 695 656 0 0 1 81 1 335 2854 34 66
1 0 0 330 692 696 17 242 0 698 250 254 239 699 661 0 664 +15 698 2378 0 52 668 0
 17 250 0 698 52 242 243 664 654 0 700 -17 254 0 698 242 52 249 27 11 0 699 -17
 699 0 697 701 438 249 242 661 0 375 -17 664 0 705 703 702 239 250 654 0 438 +15
 705 1432 0 702 666 0 17 703 0 705 97 664 87 438 436 0 704 -17 702 0 705 664 706
 243 710 442 0 0 -17 438 0 697 699 704 239 703 436 0 0 +15 697 2231 0 699 708 0
 17 704 0 697 438 701 87 126 405 0 0 -17 701 0 697 704 699 121 375 400 0 0 -17 1
26 0 600 707 93 121 704 405 0 382 +17 707 0 600 462 126 137 382 378 0 0 -17 93 0
 600 126 526 87 97 443 0 703 -17 382 0 357 375 320 121 707 378 0 701 +17 375 0 3
57 27 382 249 701 400 0 0 +17 320 0 357 382 299 137 315 318 0 707 -17 299 0 357
 320 360 282 289 319 0 315 -17 360 0 357 299 37 285 356 380 0 0 -17 289 0 292 64
 283 285 299 319 0 302 +16 319 2459 349 ?289 709 298 711 0 0 1 81 1 349 2827 34
 319 0 0 347 715 712 16 709 2453 713 ?281 714 319 717 0 0 1 31 711 2573 0 319 32
1 717 0 --.0542 -.0179 -.0109 0 0 1 1 0 0 75e-5 30 321 2574 0 298 720 711 0 --.0
542 -.01865 -.03136845027788935 0 0 1 31 717 2572 0 709 711 719 0 --.0542 -.0179
 -.0024 0 -166188288321836e-30 1 0 -1 -166188288321836e-30 75e-5 38 719 2571 0 7
16 717 718 0 +7 670 721 722 724 723 16 716 2447 725 ?272 51 325 719 0 0 1 30 718
 2570 0 51 719 727 0 --.0816 -.00915 -.03136845027788935 0 0 1 40 14 721 0 1 14
 .0001150942650421918 .3959095084518225 ??-.0542 -.01715 .0061 -.054087571672233
3 -.01715847463218335 .00676111510509314 -.0538831530420565 -.01722021473593345
 .00718027581525088 -.0537064385478418 -.017335290257793 .00741553901560399 -.05
35717517031427 -.01749036104006595 .00755543713877487 -.053475745601223 -.017705
17811762485 .0076402834677293 -.0534501885462627 -.0179168161780528 .00766109852
308996 -.0534803667665758 -.01811125342447265 .00763644425315345 -.0535552392503
125 -.01828312344702765 .0075708251338662 -.0536655868618372 -.0184262153530248
 .00746090232948958 -.0538394090049035 -.0185576276562427 .00724557326899743 -.0
540513495713829 -.0186351211125195 .00685664044601155 -.0541956797155638 -.01864
998755665835 .00623138673025569 -.0542 -.01865 .0061 41 1 722 L?-.0542 -.01715 .
0061 41 1 724 L?-.0542 -.01865 .0061 204 56 723 4 4.71238898038469 .00325 1.5707
963267949 .03746845027788935 4.37549470457873 .00325847463218333 1.4203247098599
7 .03812956538298245 4.14178801140543 .003320214735933425 1.134635748962078 .038
5487260931402 3.994535341469885 .003435290257793 .852527821938254 .0387839892934
933 3.89739922896002 .003590361040065925 .577803444911544 .0389238874166642 3.83
3325660818175 .003805178117624845 .2627762623673855 .0390087337456186 3.81684495
862594 .00401681617805281 6.26076185736317 .0390295488009793 3.83632960676141 .0
04211253424472655 5.99764988757798 .03900489453104275 3.88611365300448 .00438312
344702767 5.74703385117315 .03893927541175555 3.96401084364434 .0045262153530247
9 5.50551616668343 .0388293526073789 4.102487587122045 .00465762765624272 5.2139
4214897746 .03861402354688675 4.32440800966266 .00473512111251952 4.911910710222
28 .0382250907239009 4.64664827200991 .00474998755665837 4.71814939149025 .03759
9837008145 4.71238898038469 .00475 4.71238898038469 .03746845027788935 16 51 250
6 693 ?45 730 716 718 0 0 1 30 727 2569 0 730 718 729 0 +-.0816 -.01065 -.031368
45027788935 0 0 1 16 730 2509 726 ?262 369 51 727 0 0 1 38 729 2568 0 369 727 36
7 0 +20 676 728 735 731 733 16 369 2500 732 ?706 353 730 729 0 0 1 30 367 2567 0
 353 729 687 0 +-.0542 -.00915 -.03136845027788935 0 0 1 40 14 728 0 1 14 .00011
5094265042192 .3959095084518225 ??-.0816 -.00915 .00609987272918224 -.0817124283
277667 -.00915847463218333 .00676098783427538 -.0819168469579435 -.0092202147359
3343 .00718014854443313 -.0820935614521582 -.009335290257793 .00741541174478623
 -.0822282482968573 -.00949036104006593 .00755530986795712 -.082324254398777 -.0
0970517811762485 .00764015619691154 -.0823498114537374 -.00991681617805281 .0076
6097125227221 -.0823196332334242 -.01011125342447264 .00763631698233569 -.082244
7607496876 -.01028312344702766 .00757069786304845 -.0821344131381628 -.010426215
3530248 .00746077505867183 -.0819605909950966 -.01055762765624272 .0072454459981
7967 -.0817486504286172 -.01063512111251952 .00685651317519379 -.081604320284436
2 -.01064998755665838 .00623125945943794 -.0816 -.01065 .00609987272918224 41 1
 735 L?-.0816 -.00915 .00609987272918224 41 1 731 L?-.0816 -.01065 .006099872729
18224 204 56 733 4 1.570796326794895 -.00475 1.57079632679489 .03746832300707155
 1.907690602600855 -.00474152536781668 1.721267943729825 .0381294381121647 2.141
39729577416 -.00467978526406657 2.00695690462772 .03854859882232245 2.2886499657
097 -.004564709742207 2.28906483165154 .03878386202267555 2.385786078219565 -.00
4409638959934075 2.56378920867825 .03892376014584645 2.44985964636141 -.00419482
1882375155 2.87881639122241 .03900860647480085 2.46634034855365 -.00398318382194
719 3.164016103406215 .03902942153016155 2.446855700418175 -.00378874657552735 3
.4271280731914 .039004767260225 2.397071654175105 -.00361687655297233 3.67774410
9596225 .03893914814093775 2.319174463535245 -.003473784646975215 3.919261794085
95 .03882922533656115 2.18069772005754 -.003342372343757285 4.21083581179192 .03
8613896276069 1.958777297516925 -.00326487888748048 4.5128672505471 .03822496345
30831 1.63653703516968 -.00325001244334163 4.70662856927913 .03759970973732725 1
.570796326794895 -.00325 4.71238898038469 .03746832300707155 81 1 732 2833 34 36
9 0 0 665 694 734 17 706 0 705 702 736 261 47 369 0 710 +17 736 0 705 706 441 26
4 90 434 0 0 -17 47 0 50 45 262 264 706 369 0 49 -17 710 0 740 737 700 261 702 4
42 0 0 +15 740 2226 0 700 738 0 17 737 0 740 739 710 268 262 730 0 742 -17 700 0
 740 710 739 243 52 695 0 702 -16 442 2201 745 ?710 436 434 435 436 434 1 81 1 7
45 2846 34 442 0 0 744 741 743 16 434 2211 744 ?90 442 431 435 442 436 1 81 1 74
4 2845 34 434 0 0 437 745 749 17 90 0 750 407 49 81 736 434 0 441 +15 750 2216 0
 49 747 0 17 407 0 750 748 90 128 394 402 0 372 +17 49 0 750 90 748 264 45 51 0
 736 -17 441 0 705 736 593 81 92 439 0 394 +17 593 0 705 441 97 95 432 431 0 534
 -17 394 0 392 92 372 81 407 402 0 0 -17 97 0 705 593 703 96 93 443 0 432 +17 74
8 0 750 49 407 28 131 386 0 0 -17 131 0 357 371 55 128 748 386 0 407 +17 55 0 35
7 131 742 28 48 310 0 748 +17 742 0 357 55 27 268 739 395 0 0 +17 48 0 50 262 45
 268 55 310 0 737 -15 50 2528 0 45 679 0 17 262 0 50 47 48 261 737 730 0 706 +14
 679 2529 746 ?352 673 753 6 676 -0 0 352 673 24 81 1 746 2936 755 679 751 0 754
 677 752 14 673 2476 754 ?679 297 756 6 670 +297 297 679 297 24 15 753 2527 0 76
0 679 50 13 24 49 0 0 0 0 0 0 10 17 14 17 2298 758 ?365 0 757 6 759 -365 314 365
 0 24 81 1 758 2903 755 17 761 0 0 765 763 14 365 2293 765 ?314 17 358 6 759 -31
4 17 314 17 24 15 757 2297 0 36 17 0 50 255 759 131 0 17 762 667 0 +-.0542 -.013
9 .0111 -1 0 0 0 0 1 14 314 126 764 ?19 365 306 6 759 -17 365 19 365 24 81 1 764
 2905 755 314 766 0 765 770 767 14 19 1555 770 ?708 314 459 6 7 -0 0 708 314 24
 81 1 770 2906 755 19 768 0 764 769 772 14 708 2227 769 ?738 19 697 6 775 +738 7
47 738 19 24 81 1 769 2907 755 708 774 0 770 771 773 14 738 2217 771 ?581 708 74
0 6 775 +747 708 581 708 24 50 775 129 0 747 776 762 0 +-.0816 -.0139 .0111 -1 0
 0 0 0 1 14 747 122 777 ?779 778 750 6 775 +708 738 779 778 24 81 1 777 2915 755
 747 780 0 782 785 784 14 779 245 785 ?598 747 781 6 783 -0 0 598 747 24 14 778
 239 782 ?747 790 786 6 788 +0 0 747 790 24 81 1 782 2914 755 778 787 0 789 777
 791 14 790 242 789 ?778 795 792 6 793 +0 0 778 795 24 15 786 241 0 794 778 0 50
 788 259 0 778 797 793 0 +-.0562 -.0139 .0111 -1 0 0 0 0 1 50 797 260 0 795 800
 788 0 +-.0679 -.0201 .0111 1266221515311538e-31 -1 0 1 1266221515311538e-31 0 5
0 793 258 0 790 788 783 0 +-.0679 -.0077 .0111 1266221515311538e-31 -1 0 1 12662
21515311538e-31 0 50 783 257 0 779 793 799 0 +-.0796 -.0139 .0111 -1 0 0 0 0 1 5
0 799 256 0 796 783 798 0 +-.0679 -.0139 -.0089 0 0 1 1 0 0 14 796 251 804 ?805
 473 802 6 799 +0 0 805 473 24 50 798 3 0 581 799 776 0 +-.0679 -.0139 .0111 0 0
 1 1 0 0 14 581 1 803 ?373 738 801 6 798 +0 0 373 738 24 50 776 108 0 373 798 77
5 0 +-.0679 -.0139 -.0109 0 0 1 1 0 0 14 373 68 808 ?666 581 810 6 776 -0 0 666
 581 24 81 1 808 2910 755 373 806 0 803 809 807 14 666 1454 809 ?795 373 705 6 2
0 -0 0 795 373 24 15 810 356 0 546 373 357 17 546 0 810 546 546 0 811 416 0 0 +1
7 811 0 815 811 811 0 546 416 0 0 -15 815 382 0 811 805 0 14 805 388 813 ?812 79
6 814 6 800 -0 0 812 796 24 81 1 813 2920 755 805 816 0 804 820 818 14 812 762 8
20 ?817 805 819 6 821 -594 594 817 805 24 15 814 381 0 418 805 815 51 800 403 0
 805 821 797 0 +-.0679 -.0139 .02788782871693565 0 0 -1 .003959327434217225 -1 0
 0 50 821 801 0 594 825 800 0 +-.0841 -.0139 .00809987272918224 0 0 1 1 0 0 14 5
94 778 822 ?591 817 592 6 821 -812 812 591 817 24 50 825 804 0 817 823 821 0 +-.
0791 -.0139 1e-4 -1 0 0 0 -1 0 14 817 794 824 ?594 812 827 6 825 -0 0 594 812 24
 50 823 805 0 591 830 825 0 +-.0841 -.0139 1e-4 -1 0 0 0 -1 0 14 591 790 829 ?82
6 594 587 6 823 +0 0 826 594 24 50 830 1318 0 466 828 823 0 +-.0517 -.0139 .0081
 0 0 1 1 0 0 14 466 1275 831 ?607 832 470 6 830 -826 826 607 832 24 50 828 1321
 0 832 834 830 0 +-.0567 -.0139 1e-4 1 0 0 0 1 0 14 832 1311 833 ?466 826 835 6
 828 -0 0 466 826 24 50 834 1322 0 607 837 828 0 +-.0517 -.0139 1e-4 1 0 0 0 1 0
 14 607 1307 840 ?839 466 605 6 834 +0 0 839 466 24 50 837 1856 0 839 836 834 0
 +-.05605 -.0139 -.0054 0 -1 0 0 0 -1 14 839 1830 838 ?845 607 841 6 837 +0 0 84
5 607 24 50 836 1857 0 845 843 837 0 +-.05605 -.01650957540012895 -.0024 0 -1661
88288321836e-30 1 0 -1 -166188288321836e-30 14 845 1834 842 ?844 839 627 6 836 -
0 0 844 839 24 50 843 1858 0 844 846 836 0 +-.05605 -.01911915080025795 -.0054 0
 -1 0 0 0 -1 14 844 1838 850 ?323 845 847 6 843 -0 0 323 845 24 50 846 1859 0 32
3 685 843 0 +-.05605 -.01650957540012895 -.0084 0 0 1 1 0 0 14 323 1842 848 ?849
 844 304 6 846 +0 0 849 844 24 50 685 1861 0 849 676 846 0 +-.05605 -.0139 -.002
4 1 0 0 0 1 0 14 849 1846 852 ?297 323 855 6 685 +0 0 297 323 24 81 1 852 2933 7
55 849 854 0 848 851 853 14 297 2485 851 ?673 849 292 6 670 +673 673 673 849 24
 15 855 1849 0 859 849 0 17 859 0 855 649 860 240 652 651 0 0 -17 649 0 855 646
 859 235 629 650 0 857 +17 860 0 855 859 646 221 322 636 0 652 -17 652 0 841 638
 237 221 859 651 0 0 +15 841 1817 0 350 839 0 17 638 0 841 350 652 219 227 639 0
 858 +17 237 0 841 652 350 240 623 615 0 629 -17 350 0 841 237 638 215 858 307 0
 623 +17 629 0 627 623 233 240 649 650 0 859 -15 627 2100 0 856 845 0 17 233 0 6
27 629 218 235 632 622 0 649 -17 218 0 627 233 856 216 341 342 0 632 -17 632 0 8
47 326 857 216 233 622 0 312 +15 847 1825 0 232 844 0 17 326 0 847 232 632 63 31
2 327 0 313 -17 857 0 847 632 232 235 646 641 0 0 -17 312 0 306 341 313 216 326
 327 0 0 +17 341 0 306 311 312 53 218 342 0 0 +17 311 0 306 74 341 269 56 325 0
 461 -17 74 0 306 136 311 71 461 455 0 456 +17 56 0 863 281 272 53 311 325 0 856
 +16 325 2450 865 ?56 716 714 321 298 298 1 17 461 0 459 861 456 269 74 455 0 0
 -17 861 0 459 864 461 273 272 716 0 862 -16 455 2261 741 ?74 453 449 448 453 37
0 1 81 1 741 2847 34 455 0 0 745 454 866 16 453 2251 870 ?862 370 455 448 370 45
5 1 81 1 870 2849 34 453 0 0 454 868 867 17 862 0 757 869 36 273 864 453 0 0 +17
 869 0 757 214 862 279 280 714 0 628 -17 36 0 757 862 356 255 26 39 0 864 -17 86
4 0 459 354 861 255 862 453 0 0 -17 354 0 459 368 864 251 40 684 0 364 -17 40 0
 31 26 256 255 354 684 0 36 +17 356 0 757 36 302 12 360 380 0 0 +16 39 2404 871
 ?26 684 353 687 0 0 1 81 1 871 2859 34 39 0 0 366 317 875 80 7 CCCCCDI12 legal_
owners0 17 1 lCZ1 34 873 872 9000 0 0 0 0 3 6 0 0 0 FFTFTFTTFFFFFFFFF1 81 1 366
 2858 34 353 0 0 726 871 874 81 1 317 2860 34 298 0 0 871 865 876 82 255 3 875 3
0 97 1 81 1 865 2861 34 325 0 0 317 880 877 82 3 876 30 98 1 81 1 880 2862 34 30
5 0 0 865 878 879 82 3 877 30 99 1 16 305 2462 880 ?64 298 882 720 714 714 1 81
 1 878 2863 34 714 0 0 880 816 885 82 3 879 30 100 1 16 714 2444 878 ?280 325 70
9 720 305 305 1 81 1 816 2864 34 805 0 813 878 884 881 82 3 885 30 101 1 81 1 88
4 2865 34 796 0 804 816 883 886 82 3 881 30 0 2 81 1 804 2919 755 796 884 0 887
 813 889 81 1 883 2866 34 591 0 829 884 888 890 82 3 886 30 1 2 81 1 829 2924 75
5 591 883 0 822 892 895 81 1 888 2867 34 779 0 785 883 894 891 82 3 890 30 2 2 8
1 1 785 2916 755 779 888 0 777 893 900 81 1 894 2868 34 817 0 824 888 896 898 82
 3 891 30 3 2 81 1 824 2922 755 817 894 0 820 822 897 81 1 896 2869 34 812 0 820
 894 899 901 82 3 898 30 4 2 81 1 820 2921 755 812 896 0 813 824 905 81 1 899 28
70 34 607 0 840 896 787 902 82 3 901 30 5 2 81 1 840 2928 755 607 899 0 831 838
 903 81 1 787 2871 34 778 0 782 899 904 907 82 3 902 30 6 2 81 1 904 2872 34 795
 0 910 787 909 906 82 3 907 30 7 2 14 795 236 910 ?790 666 908 6 797 -0 0 790 66
6 24 81 1 910 2912 755 795 904 0 809 789 914 81 1 909 2873 34 790 0 789 904 915
 912 82 3 906 30 8 2 81 1 789 2913 755 790 909 0 910 782 913 81 1 915 2874 34 83
2 0 833 909 911 918 82 3 912 30 9 2 81 1 833 2926 755 832 915 0 892 831 920 81 1
 911 2875 34 826 0 892 915 916 919 82 3 918 30 10 2 14 826 1295 892 ?832 591 619
 6 830 -466 466 832 591 24 81 1 892 2925 755 826 911 0 829 833 917 81 1 916 2876
 34 594 0 822 911 921 925 82 3 919 30 11 2 81 1 822 2923 755 594 916 0 824 829 9
23 81 1 921 2877 34 466 0 831 916 922 924 82 3 925 30 12 2 81 1 831 2927 755 466
 921 0 833 840 926 81 1 922 2878 34 598 0 893 921 930 928 82 3 924 30 13 2 14 59
8 128 893 ?473 779 600 6 667 +0 0 473 779 24 81 1 893 2917 755 598 922 0 785 887
 927 81 1 930 2879 34 473 0 887 922 854 929 82 3 928 30 14 2 14 473 124 887 ?796
 598 392 6 762 -0 0 796 598 24 81 1 887 2918 755 473 930 0 893 804 931 81 1 854
 2880 34 849 0 852 930 935 932 82 3 929 30 15 2 81 1 935 2881 34 839 0 838 854 9
33 934 82 3 932 30 16 2 81 1 838 2929 755 839 935 0 840 842 937 81 1 933 2882 34
 844 0 850 935 940 939 82 3 934 30 17 2 81 1 850 2931 755 844 933 0 842 848 936
 81 1 940 2883 34 668 0 674 933 751 938 82 3 939 30 18 2 81 1 674 2938 755 668 9
40 0 677 0 941 81 1 751 2884 34 679 0 746 940 942 944 82 3 938 30 19 2 81 1 942
 2885 34 352 0 677 751 806 943 82 3 944 30 20 2 81 1 677 2937 755 352 942 0 746
 674 945 81 1 806 2886 34 373 0 808 942 947 950 82 3 943 30 21 2 81 1 947 2887 3
4 581 0 803 806 949 946 82 3 950 30 22 2 81 1 803 2909 755 581 947 0 771 808 948
 81 1 949 2888 34 666 0 809 947 768 955 82 3 946 30 23 2 81 1 809 2911 755 666 9
49 0 808 910 951 81 1 768 2889 34 19 0 770 949 953 952 82 3 955 30 24 2 81 1 953
 2890 34 845 0 842 768 954 956 82 3 952 30 25 2 81 1 842 2930 755 845 953 0 838
 850 960 81 1 954 2891 34 323 0 848 953 774 957 82 3 956 30 26 2 81 1 848 2932 7
55 323 954 0 850 852 958 81 1 774 2892 34 708 0 769 954 780 959 82 3 957 30 27 2
 81 1 780 2893 34 747 0 777 774 962 965 82 3 959 30 28 2 81 1 962 2894 34 738 0
 771 780 964 961 82 3 965 30 29 2 81 1 771 2908 755 738 962 0 769 803 963 81 1 9
64 2895 34 365 0 765 962 766 969 82 3 961 30 30 2 81 1 765 2904 755 365 964 0 75
8 764 970 81 1 766 2896 34 314 0 764 964 761 967 82 3 969 30 31 2 81 1 761 2897
 34 17 0 758 766 968 966 82 3 967 30 32 2 81 1 968 2898 34 297 0 851 761 973 975
 82 3 966 30 33 2 81 1 851 2934 755 297 968 0 852 754 971 81 1 973 2899 34 673 0
 754 968 0 974 82 3 975 30 34 2 81 1 754 2935 755 673 973 0 851 746 972 82 3 974
 30 35 2 80 1 755 0 976 8001 0 0 0 0 3 5 0 0 0 FFFFTFTFFFFFFFFFF2 83 255 3 972 .
972549019607843 .529411764705882 .00392156862745098 79 255 15 976 SDL/TYSA_COLOU
R83 3 971 .972549019607843 .529411764705882 .00392156862745098 83 3 970 .9725490
19607843 .529411764705882 .00392156862745098 83 3 963 .972549019607843 .52941176
4705882 .00392156862745098 83 3 958 .972549019607843 .529411764705882 .003921568
62745098 83 3 960 .972549019607843 .529411764705882 .00392156862745098 83 3 951
 .972549019607843 .529411764705882 .00392156862745098 83 3 948 .972549019607843
 .529411764705882 .00392156862745098 83 3 945 .972549019607843 .529411764705882
 .00392156862745098 83 3 941 .972549019607843 .529411764705882 .0039215686274509
8 83 3 936 .972549019607843 .529411764705882 .00392156862745098 83 3 937 .972549
019607843 .529411764705882 .00392156862745098 83 3 931 .972549019607843 .5294117
64705882 .00392156862745098 50 762 130 0 473 775 759 0 +-.0679 -.0057 .0111 1266
221515311538e-31 -1 0 1 1266221515311538e-31 0 83 3 927 .972549019607843 .529411
764705882 .00392156862745098 50 667 132 0 598 759 20 0 +-.0679 -.0221 .0111 1266
221515311538e-31 -1 0 1 1266221515311538e-31 0 83 3 926 .972549019607843 .529411
764705882 .00392156862745098 83 3 923 .972549019607843 .529411764705882 .0039215
6862745098 83 3 917 .972549019607843 .529411764705882 .00392156862745098 15 619
 1282 0 980 826 0 17 980 0 619 497 616 120 118 428 0 0 -17 497 0 619 613 980 99
 124 492 0 618 +17 616 0 619 980 613 116 110 485 0 0 -17 118 0 786 146 794 116 9
80 428 0 978 +17 146 0 786 977 118 141 978 554 0 562 +17 794 0 786 118 977 120 1
54 383 0 980 -17 978 0 792 110 979 116 146 554 0 616 -15 792 244 0 978 790 0 17
 110 0 792 112 978 102 616 485 0 981 +17 979 0 792 978 143 141 566 565 0 0 -17 1
43 0 792 979 538 144 985 557 0 566 +17 566 0 983 982 562 144 979 565 0 572 +15 9
83 253 0 984 796 0 17 982 0 983 984 566 138 572 568 0 0 -17 562 0 983 566 984 14
1 977 549 0 979 +17 572 0 781 985 155 144 982 568 0 0 +15 781 481 0 986 779 0 17
 985 0 781 986 572 156 143 557 0 0 -17 155 0 781 572 986 138 990 551 0 548 +17 9
86 0 781 155 985 159 157 413 0 990 -17 990 0 908 987 548 159 155 551 0 0 -17 548
 0 908 990 154 138 984 550 0 982 +15 908 1057 0 124 795 0 17 154 0 908 548 124 1
49 794 383 0 977 +17 984 0 983 562 982 149 548 550 0 0 -17 124 0 908 154 103 120
 497 492 0 794 -17 977 0 786 794 146 149 562 549 0 984 -17 103 0 908 124 113 99
 504 498 0 497 -17 113 0 908 103 988 115 176 573 0 504 -17 504 0 835 625 618 115
 103 498 0 989 +15 835 1270 0 618 832 0 17 625 0 835 981 504 107 989 488 0 0 +17
 618 0 835 504 981 99 613 612 0 0 -17 989 0 992 176 995 115 625 488 0 0 -15 992
 1381 0 989 581 582 17 176 0 992 530 989 177 113 573 0 994 +17 995 0 992 989 530
 107 175 559 0 625 -17 530 0 992 995 176 172 994 508 0 0 +17 175 0 792 430 112 1
72 995 559 0 991 +17 430 0 792 538 175 169 991 424 0 0 +17 112 0 792 175 110 107
 981 500 0 995 +17 991 0 827 994 993 172 430 424 0 530 -15 827 753 0 994 817 0 1
7 994 0 827 170 991 177 530 508 0 988 -17 993 0 827 991 170 169 521 503 0 430 -1
7 170 0 827 993 994 163 988 423 0 521 +17 521 0 819 162 171 163 993 503 0 987 +1
5 819 765 0 521 812 0 17 162 0 819 157 521 159 987 537 0 986 +17 171 0 819 521 1
57 169 538 532 0 993 -17 987 0 908 988 990 163 162 537 0 0 -17 988 0 908 113 987
 177 170 423 0 0 -17 157 0 819 171 162 156 986 413 0 538 +17 538 0 792 143 430 1
56 171 532 0 985 +17 981 0 835 618 625 102 112 500 0 613 -83 3 920 .972549019607
843 .529411764705882 .00392156862745098 83 3 913 .972549019607843 .5294117647058
82 .00392156862745098 83 3 914 .972549019607843 .529411764705882 .00392156862745
098 83 3 903 .972549019607843 .529411764705882 .00392156862745098 83 3 905 .9725
49019607843 .529411764705882 .00392156862745098 83 3 897 .972549019607843 .52941
1764705882 .00392156862745098 83 3 900 .972549019607843 .529411764705882 .003921
56862745098 83 3 895 .972549019607843 .529411764705882 .00392156862745098 83 3 8
89 .972549019607843 .529411764705882 .00392156862745098 17 280 0 863 272 281 273
 869 714 0 861 +30 720 2575 0 305 996 321 0 +-.0542 -.01715 -.03136845027788935
 0 0 1 31 996 2576 0 882 997 720 0 +-.0816 -.0099 .0111 0 0 1 1 0 0 75e-5 16 882
 2515 999 ?760 305 998 996 0 0 1 31 997 2578 0 1000 1002 996 0 +-.0542 -.0099 .0
111 0 0 -1 1 0 0 75e-5 16 1000 2393 1005 ?1004 998 1001 997 0 0 1 31 1002 2580 0
 998 1003 997 0 +-.0816 -.0179 .0111 0 0 1 1 0 0 75e-5 16 998 2365 715 ?1010 882
 1000 1002 0 0 1 31 1003 2582 0 1001 0 1002 0 +-.0542 -.0179 .0111 0 0 -1 1 0 0
 75e-5 16 1001 2436 1006 ?1008 1000 0 1003 0 0 1 81 1 1006 2831 34 1001 0 0 1005
 665 1007 17 1008 0 1009 1008 1008 0 1011 1001 0 0 +15 1009 2175 0 1008 581 1015
 17 1011 0 756 1011 1011 0 1008 1001 0 0 -15 756 2479 0 1011 673 863 15 863 2480
 0 272 673 0 17 272 0 863 56 280 269 861 716 0 311 +15 1015 2169 0 1012 581 992
 17 1012 0 1015 1012 1012 0 760 882 0 0 -17 760 0 753 760 760 0 1012 882 0 0 +81
 1 1005 2830 34 1000 0 0 999 1006 1013 81 1 665 2832 34 654 0 0 1006 732 1014 82
 3 1007 30 69 1 82 3 1014 30 70 1 81 1 999 2829 34 882 0 0 715 1005 1017 82 3 10
13 30 68 1 81 1 715 2828 34 998 0 0 349 999 1020 82 3 1017 30 67 1 82 3 1020 30
 66 1 17 1010 0 671 1010 1010 0 1019 998 0 0 +15 671 2377 0 1010 668 698 17 1019
 0 801 1019 1019 0 1010 998 0 0 -15 801 2190 0 1019 581 1009 17 1004 0 588 1004
 1004 0 1016 1000 0 0 +15 588 2182 0 1004 581 0 17 1016 0 681 1016 1016 0 1004 1
000 0 0 -15 681 2420 0 1016 352 31 17 281 0 863 280 56 279 856 709 0 869 +17 856
 0 627 218 628 53 281 709 0 341 -17 628 0 627 856 623 279 214 333 0 0 -17 214 0
 757 858 869 215 628 333 0 350 +16 333 2095 868 ?214 342 327 340 342 342 1 81 1
 868 2850 34 333 0 0 870 344 1018 81 1 344 2851 34 342 0 0 868 332 1024 82 3 101
8 30 88 1 81 1 332 2852 34 328 0 0 344 330 1025 82 3 1024 30 89 1 82 3 1025 30 9
0 1 17 858 0 757 303 214 219 350 307 0 0 -17 303 0 757 302 858 58 224 328 0 0 -1
7 302 0 757 356 303 285 64 305 0 360 -17 224 0 304 227 294 219 303 328 0 638 +17
 227 0 304 322 224 221 638 639 0 860 -17 322 0 304 70 227 229 860 636 0 0 +81 1
 726 2857 34 730 0 0 693 366 1022 82 3 874 30 96 1 81 1 693 2856 34 51 0 0 692 7
26 1023 82 3 1022 30 95 1 82 3 1023 30 94 1 79 9 872 BTI/DetId81 1 454 2848 34 3
70 0 0 741 870 1021 82 3 867 30 87 1 82 3 1021 30 86 1 82 3 866 30 85 1 17 136 0
 306 315 74 137 462 415 0 320 +17 462 0 600 84 707 71 136 415 0 0 -17 84 0 600 4
75 462 79 456 451 0 465 -17 232 0 847 857 326 229 70 324 0 646 -17 646 0 855 860
 649 229 857 641 0 322 +83 3 853 .972549019607843 .529411764705882 .003921568627
45098 17 418 0 814 418 418 0 1028 419 0 0 +17 1028 0 802 1028 1028 0 418 419 0 0
 -15 802 350 0 1028 796 983 83 3 818 .972549019607843 .529411764705882 .00392156
862745098 83 3 807 .972549019607843 .529411764705882 .00392156862745098 83 3 791
 .972549019607843 .529411764705882 .00392156862745098 83 3 784 .972549019607843
 .529411764705882 .00392156862745098 83 3 773 .972549019607843 .529411764705882
 .00392156862745098 83 3 772 .972549019607843 .529411764705882 .0039215686274509
8 83 3 767 .972549019607843 .529411764705882 .00392156862745098 83 3 763 .972549
019607843 .529411764705882 .00392156862745098 83 3 752 .972549019607843 .5294117
64705882 .00392156862745098 17 27 0 357 742 375 43 254 11 0 739 +17 739 0 740 70
0 737 43 742 395 0 0 -16 395 2110 1030 ?742 400 386 397 400 386 1 81 1 1030 2843
 34 395 0 0 393 437 1026 81 1 393 2842 34 386 0 0 396 1030 1029 81 1 437 2844 34
 436 0 0 1030 744 1027 82 3 1026 30 81 1 82 3 1027 30 82 1 81 1 396 2841 34 400
 0 0 381 393 1031 82 3 1029 30 80 1 81 1 381 2840 34 380 0 0 376 396 1035 82 3 1
031 30 79 1 82 3 1035 30 78 1 82 3 749 30 83 1 82 3 743 30 84 1 81 1 694 2834 34
 684 0 0 732 725 1033 82 3 734 30 71 1 81 1 725 2835 34 716 0 0 694 713 1032 82
 3 1033 30 72 1 81 1 713 2836 34 709 0 0 725 309 1034 82 3 1032 30 73 1 81 1 309
 2837 34 296 0 0 713 379 1036 82 3 1034 30 74 1 82 3 1036 30 75 1 82 3 712 30 65
 1 82 3 696 30 92 1 82 3 691 30 93 1 141 682 729 682 682 676 141 680 719 680 680
 670 141 669 729 1040 1040 20 141 1040 655 669 669 20 81 1 653 2822 34 651 0 0 6
45 642 1038 81 1 645 2821 34 636 0 0 647 653 1037 81 1 642 2823 34 641 0 0 653 2
5 1039 82 3 1038 30 60 1 81 1 25 2824 34 11 0 0 642 348 1041 82 3 1039 30 61 1 8
1 1 348 2825 34 310 0 0 25 347 1045 82 3 1041 30 62 1 82 3 1045 30 63 1 81 1 647
 2820 34 650 0 0 633 645 1042 82 3 1037 30 59 1 81 1 633 2819 34 324 0 0 637 647
 1043 82 3 1042 30 58 1 81 1 637 2818 34 639 0 0 626 633 1044 82 3 1043 30 57 1
 81 1 626 2817 34 622 0 0 621 637 1047 82 3 1044 30 56 1 82 3 1047 30 55 1 81 1
 331 2815 34 327 0 0 343 621 1050 82 3 630 30 54 1 81 1 343 2814 34 307 0 0 480
 331 1049 82 3 1050 30 53 1 82 3 1049 30 52 1 81 1 617 2798 34 488 0 0 579 614 1
046 81 1 579 2797 34 559 0 0 577 617 1048 82 3 1046 30 36 1 81 1 577 2796 34 573
 0 0 561 579 1051 82 3 1048 30 35 1 81 1 561 2795 34 554 0 0 555 577 1052 82 3 1
051 30 34 1 81 1 555 2794 34 383 0 0 584 561 1054 82 3 1052 30 33 1 82 3 1054 30
 32 1 81 1 433 2800 34 431 0 0 614 447 1053 82 3 620 30 37 1 81 1 447 2801 34 44
3 0 0 433 444 1055 82 3 1053 30 38 1 81 1 444 2802 34 439 0 0 447 403 1057 82 3
 1055 30 39 1 81 1 403 2803 34 405 0 0 444 410 1060 82 3 1057 30 40 1 81 1 410 2
804 34 402 0 0 403 531 1059 82 3 1060 30 41 1 81 1 531 2805 34 533 0 0 410 528 1
056 82 3 1059 30 42 1 81 1 528 2806 34 522 0 0 531 450 1058 82 3 1056 30 43 1 81
 1 450 2807 34 449 0 0 528 460 1065 82 3 1058 30 44 1 82 3 1065 30 45 1 81 1 608
 2784 34 603 0 0 482 602 1061 81 1 482 2783 34 476 0 0 524 608 1063 81 1 602 278
5 34 601 0 0 608 610 1062 82 3 1061 30 22 1 82 3 1062 30 23 1 81 1 524 2782 34 5
03 0 0 529 482 1064 82 3 1063 30 21 1 81 1 529 2781 34 508 0 0 569 524 1066 82 3
 1064 30 20 1 81 1 569 2780 34 557 0 0 556 529 1070 82 3 1066 30 19 1 81 1 556 2
779 34 551 0 0 421 569 1067 82 3 1070 30 18 1 81 1 421 2778 34 413 0 0 540 556 1
068 82 3 1067 30 17 1 81 1 540 2777 34 532 0 0 426 421 1069 82 3 1068 30 16 1 81
 1 426 2776 34 424 0 0 541 540 1072 82 3 1069 30 15 1 81 1 541 2775 34 537 0 0 5
43 426 1075 82 3 1072 30 14 1 81 1 543 2774 34 423 0 0 514 541 1074 82 3 1075 30
 13 1 81 1 514 2773 34 513 0 0 510 543 1071 82 3 1074 30 12 1 81 1 510 2772 34 5
05 0 0 511 514 1073 82 3 1071 30 11 1 81 1 511 2771 34 506 0 0 518 510 1079 82 3
 1073 30 10 1 81 1 518 2770 34 520 0 0 417 511 1080 82 3 1079 30 9 1 81 1 417 27
69 34 419 0 0 544 518 1077 82 3 1080 30 8 1 81 1 544 2768 34 416 0 0 575 417 107
8 82 3 1077 30 7 1 81 1 575 2767 34 568 0 0 560 544 1076 82 3 1078 30 6 1 81 1 5
60 2766 34 549 0 0 570 575 1083 82 3 1076 30 5 1 81 1 570 2765 34 565 0 0 388 56
0 1085 82 3 1083 30 4 1 81 1 388 2764 34 550 0 0 389 570 1081 82 3 1085 30 3 1 8
2 3 1081 30 2 1 81 1 429 2787 34 428 0 0 610 502 1084 82 3 606 30 24 1 81 1 502
 2788 34 498 0 0 429 494 1082 82 3 1084 30 25 1 81 1 494 2789 34 492 0 0 502 496
 1086 82 3 1082 30 26 1 81 1 496 2790 34 500 0 0 494 495 1090 82 3 1086 30 27 1
 81 1 495 2791 34 485 0 0 496 578 1088 82 3 1090 30 28 1 81 1 578 2792 34 398 0
 0 495 584 1087 82 3 1088 30 29 1 82 3 1087 30 30 1 17 211 0 470 464 469 208 210
 603 0 599 -82 3 585 30 31 1 81 1 477 2812 34 472 0 0 412 480 1089 81 1 412 2811
 34 408 0 0 411 477 1091 82 3 1089 30 50 1 81 1 411 2810 34 415 0 0 458 412 1095
 82 3 1091 30 49 1 82 3 1095 30 48 1 82 3 481 30 51 1 17 361 0 392 372 75 135 36
2 408 0 371 +17 362 0 358 364 134 69 361 408 0 0 -82 3 463 30 47 1 82 3 457 30 4
6 1 81 1 291 2762 34 378 0 0 288 389 1093 82 3 391 30 1 1 82 3 1093 30 0 1 82 3
 390 30 76 1 82 3 385 30 77 1 82 3 351 30 64 1 82 3 334 30 91 1 81 1 62 2760 34
 58 0 0 59 288 1092 82 3 293 30 63 0 81 1 59 2759 34 53 0 0 278 62 1094 82 3 109
2 30 62 0 81 1 278 2758 34 279 0 0 277 59 1096 82 3 1094 30 61 0 81 1 277 2757 3
4 273 0 0 275 278 1100 82 3 1096 30 60 0 81 1 275 2756 34 269 0 0 253 277 1097 8
2 3 1100 30 59 0 81 1 253 2755 34 255 0 0 260 275 1098 82 3 1097 30 58 0 81 1 26
0 2754 34 251 0 0 263 253 1099 82 3 1098 30 57 0 81 1 263 2753 34 261 0 0 270 26
0 1102 82 3 1099 30 56 0 81 1 270 2752 34 264 0 0 247 263 1105 82 3 1102 30 55 0
 81 1 247 2751 34 243 0 0 245 270 1104 82 3 1105 30 54 0 81 1 245 2750 34 239 0
 0 290 247 1101 82 3 1104 30 53 0 81 1 290 2749 34 285 0 0 32 245 1103 82 3 1101
 30 52 0 81 1 32 2748 34 282 0 0 29 290 1106 82 3 1103 30 51 0 82 3 1106 30 50 0
 81 1 44 2745 34 268 0 0 41 35 1107 81 1 35 2746 34 259 0 0 44 29 1109 82 3 1107
 30 47 0 82 3 1109 30 48 0 81 1 248 2742 34 249 0 0 230 42 1108 81 1 230 2741 34
 229 0 0 226 248 1110 81 1 42 2743 34 43 0 0 248 41 1112 82 3 1108 30 44 0 82 3
 1112 30 45 0 81 1 226 2740 34 221 0 0 231 230 1115 82 3 1110 30 43 0 81 1 231 2
739 34 235 0 0 238 226 1114 82 3 1115 30 42 0 81 1 238 2738 34 240 0 0 67 231 11
11 82 3 1114 30 41 0 81 1 67 2737 34 63 0 0 225 238 1113 82 3 1111 30 40 0 81 1
 225 2736 34 219 0 0 217 67 1120 82 3 1113 30 39 0 81 1 217 2735 34 216 0 0 212
 225 1116 82 3 1120 30 38 0 81 1 212 2734 34 215 0 0 77 217 1118 82 3 1116 30 37
 0 81 1 77 2733 34 76 0 0 85 212 1117 82 3 1118 30 36 0 81 1 85 2732 34 79 0 0 6
8 77 1119 82 3 1117 30 35 0 81 1 68 2731 34 69 0 0 72 85 1121 82 3 1119 30 34 0
 81 1 72 2730 34 71 0 0 94 68 1125 82 3 1121 30 33 0 81 1 94 2729 34 95 0 0 98 7
2 1122 82 3 1125 30 32 0 81 1 98 2728 34 96 0 0 89 94 1123 82 3 1122 30 31 0 81
 1 89 2727 34 81 0 0 86 98 1124 82 3 1123 30 30 0 81 1 86 2726 34 87 0 0 106 89
 1127 82 3 1124 30 29 0 81 1 106 2725 34 102 0 0 109 86 1130 82 3 1127 30 28 0 8
1 1 109 2724 34 107 0 0 105 106 1129 82 3 1130 30 27 0 81 1 105 2723 34 99 0 0 1
11 109 1126 82 3 1129 30 26 0 81 1 111 2722 34 115 0 0 119 105 1128 82 3 1126 30
 25 0 81 1 119 2721 34 116 0 0 125 111 1134 82 3 1128 30 24 0 81 1 125 2720 34 1
20 0 0 206 119 1135 82 3 1134 30 23 0 81 1 206 2719 34 204 0 0 209 125 1132 82 3
 1135 30 22 0 81 1 209 2718 34 208 0 0 205 206 1133 82 3 1132 30 21 0 81 1 205 2
717 34 196 0 0 197 209 1131 82 3 1133 30 20 0 81 1 197 2716 34 199 0 0 168 205 1
138 82 3 1131 30 19 0 81 1 168 2715 34 169 0 0 173 197 1140 82 3 1138 30 18 0 81
 1 173 2714 34 172 0 0 158 168 1136 82 3 1140 30 17 0 81 1 158 2713 34 156 0 0 1
67 173 1139 82 3 1136 30 16 0 81 1 167 2712 34 163 0 0 179 158 1137 82 3 1139 30
 15 0 81 1 179 2711 34 177 0 0 165 167 1141 82 3 1137 30 14 0 81 1 165 2710 34 1
59 0 0 189 179 1145 82 3 1141 30 13 0 81 1 189 2709 34 187 0 0 191 165 1143 82 3
 1145 30 12 0 81 1 191 2708 34 195 0 0 181 189 1142 82 3 1143 30 11 0 81 1 181 2
707 34 178 0 0 186 191 1144 82 3 1142 30 10 0 81 1 186 2706 34 182 0 0 142 181 1
146 82 3 1144 30 9 0 81 1 142 2705 34 144 0 0 150 186 1150 82 3 1146 30 8 0 81 1
 150 2704 34 141 0 0 151 142 1148 82 3 1150 30 7 0 81 1 151 2703 34 138 0 0 152
 150 1147 82 3 1148 30 6 0 81 1 152 2702 34 149 0 0 129 151 1149 82 3 1147 30 5
 0 81 1 129 2701 34 128 0 0 133 152 1151 82 3 1149 30 4 0 81 1 133 2700 34 135 0
 0 130 129 1155 82 3 1151 30 3 0 81 1 130 2699 34 121 0 0 139 133 1152 82 3 1155
 30 2 0 81 1 139 2698 34 137 0 0 1153 130 1154 82 3 1152 30 1 0 81 1 1153 1386 3
4 1 0 1157 0 139 1160 82 3 1154 30 0 0 81 1 1157 2900 1159 1 1153 14 0 0 1156 82
 3 1160 6 0 3 80 1 1159 1158 1161 8038 0 0 0 0 0 0 0 0 0 TTTTTTTTTTTTTFTFT10 81
 1 14 2901 1158 1 1157 2 0 0 1162 98 255 6 1156 80 97 114 116 32 49 80 1 1158 11
64 1163 8017 0 0 0 0 0 0 0 0 0 TTTTTTTTTTTTTFTFT3 84 255 6 1162 Part 179 13 1163
 SDL/TYSA_NAME79 14 1161 SDL/TYSA_UNAME82 3 46 30 46 0 82 3 33 30 49 0 19 18 138
 0 1 0 10 6 0 S0 141 21 719 1165 1165 7 141 1165 683 21 21 7 74 4 CI16 index_map
_offset0 0 1 dCCZ20 16 5 0 0 973 1157 14 2 674 0 0 0 0 0 0 0 0 0 0 0 0 0 0 0 80
 1 13 755 1167 8040 0 0 0 0 3 5 0 0 0 TTTFFFFFFFFFFFFFF2 83 3 15 .97254901960784
3 .529411764705882 .00392156862745098 79 17 1167 SDL/TYSA_COLOUR_21 0 
